<svg xmlns="http://www.w3.org/2000/svg" viewBox="493 184 401 408">
<g>
<path d="M 554.79 519.75 C551.82,523.34 548.55,520.65 537.93,505.90 C515.32,474.47 502.82,439.80 499.94,400.50 C493.93,318.29 540.15,240.45 615.82,205.32 C636.40,195.77 661.98,189.05 679.10,188.69 L 679.25 188.69 C684.80,188.57 687.89,188.51 688.99,189.95 C690.36,191.77 688.60,195.97 684.61,205.44 L 684.61,205.44 L 684.52 205.64 C681.31,213.26 676.78,224.23 674.45,230.00 C672.13,235.77 666.30,249.95 661.50,261.50 C656.70,273.05 650.41,288.35 647.51,295.50 C644.62,302.65 630.67,336.62 616.52,371.00 C602.36,405.38 587.51,441.60 583.51,451.50 C571.13,482.20 555.87,518.44 554.79,519.75 ZM 720.03 586.97 C708.38,588.39 679.35,588.09 668.80,586.45 C649.90,583.51 628.13,576.52 610.50,567.75 C601.34,563.18 579.08,548.75 574.25,544.23 C572.29,542.40 571.00,540.22 571.00,538.74 C571.00,535.98 580.10,521.62 589.56,509.43 C610.39,482.60 641.93,463.62 677.40,456.54 C696.73,452.68 711.25,452.00 774.80,451.99 C848.39,451.98 856.42,451.24 873.54,442.91 C883.30,438.16 885.00,438.00 885.00,441.81 C885.00,448.67 873.00,477.28 864.65,490.34 C862.64,493.47 861.00,496.30 861.00,496.63 C861.00,498.00 843.62,520.20 841.42,521.64 C839.20,523.10 838.79,523.09 836.41,521.53 C833.62,519.71 831.56,515.51 823.86,496.00 C821.15,489.12 817.54,480.24 815.83,476.25 L 812.73 469.00 L 788.86 469.00 C765.14,469.00 765.00,469.01 765.00,471.14 C765.00,473.88 771.43,488.93 775.49,495.69 C784.09,510.00 799.07,524.01 813.46,531.20 C827.08,538.02 826.83,538.98 807.91,552.47 C795.79,561.11 776.63,571.27 762.73,576.42 C751.00,580.77 731.66,585.55 720.03,586.97 ZM 830.00 436.00 C810.24,437.07 804.56,437.10 801.07,436.12 C800.79,436.04 800.57,436.03 800.35,435.97 C798.46,435.48 797.30,432.18 770.51,363.00 C753.29,318.54 751.08,312.87 732.55,266.00 C730.82,261.63 729.19,257.51 727.66,253.63 C704.76,195.72 703.07,191.46 704.45,189.88 C704.66,189.65 704.92,189.48 705.20,189.20 C706.80,187.60 711.14,187.69 723.84,189.57 C779.11,197.78 827.06,228.35 858.84,275.65 C878.77,305.32 889.72,338.24 890.75,371.61 C891.34,390.69 890.25,398.42 885.51,408.67 C877.00,427.10 862.51,434.24 830.00,436.00 Z" fill="rgb(232,85,4)"/>
</g>
</svg>