<svg xmlns="http://www.w3.org/2000/svg" width="1387" height="756" viewBox="0 0 1387 756">
<g>
<path d="M 554.79 519.75 C551.82,523.34 548.55,520.65 537.93,505.90 C515.32,474.47 502.82,439.80 499.94,400.50 C493.93,318.29 540.15,240.45 615.82,205.32 C636.40,195.77 661.98,189.05 679.10,188.69 L 679.25 188.69 C684.80,188.57 687.89,188.51 688.99,189.95 C690.36,191.77 688.60,195.97 684.61,205.44 L 684.52 205.64 C681.31,213.26 676.78,224.23 674.45,230.00 C672.13,235.77 666.30,249.95 661.50,261.50 C656.70,273.05 650.41,288.35 647.51,295.50 C644.62,302.65 630.67,336.62 616.52,371.00 C602.36,405.38 587.51,441.60 583.51,451.50 C571.13,482.20 555.87,518.44 554.79,519.75 ZM 720.03 586.97 C708.38,588.39 679.35,588.09 668.80,586.45 C649.90,583.51 628.13,576.52 610.50,567.75 C601.34,563.18 579.08,548.75 574.25,544.23 C572.29,542.40 571.00,540.22 571.00,538.74 C571.00,535.98 580.10,521.62 589.56,509.43 C610.39,482.60 641.93,463.62 677.40,456.54 C696.73,452.68 711.25,452.00 774.80,451.99 C848.39,451.98 856.42,451.24 873.54,442.91 C883.30,438.16 885.00,438.00 885.00,441.81 C885.00,448.67 873.00,477.28 864.65,490.34 C862.64,493.47 861.00,496.30 861.00,496.63 C861.00,498.00 843.62,520.20 841.42,521.64 C839.20,523.10 838.79,523.09 836.41,521.53 C833.62,519.71 831.56,515.51 823.86,496.00 C821.15,489.12 817.54,480.24 815.83,476.25 L 812.73 469.00 L 788.86 469.00 C765.14,469.00 765.00,469.01 765.00,471.14 C765.00,473.88 771.43,488.93 775.49,495.69 C784.09,510.00 799.07,524.01 813.46,531.20 C827.08,538.02 826.83,538.98 807.91,552.47 C795.79,561.11 776.63,571.27 762.73,576.42 C751.00,580.77 731.66,585.55 720.03,586.97 ZM 830.00 436.00 C810.24,437.07 804.56,437.10 801.07,436.12 C800.79,436.04 800.57,436.03 800.35,435.97 C798.46,435.48 797.30,432.18 770.51,363.00 C753.29,318.54 751.08,312.87 732.55,266.00 C730.82,261.63 729.19,257.51 727.66,253.63 C704.76,195.72 703.07,191.46 704.45,189.88 C704.66,189.65 704.92,189.48 705.20,189.20 C706.80,187.60 711.14,187.69 723.84,189.57 C779.11,197.78 827.06,228.35 858.84,275.65 C878.77,305.32 889.72,338.24 890.75,371.61 C891.34,390.69 890.25,398.42 885.51,408.67 C877.00,427.10 862.51,434.24 830.00,436.00 ZM 600.50 475.93 C597.75,478.16 594.73,479.98 593.79,479.99 C588.96,480.02 589.75,477.44 608.66,431.47 C618.83,406.74 631.22,376.60 636.19,364.50 C645.34,342.22 648.56,334.48 663.62,298.50 C675.78,269.43 676.38,268.49 681.27,270.71 C683.84,271.88 685.29,275.36 712.35,345.00 C718.65,361.23 728.80,387.02 734.90,402.31 C741.01,417.61 746.00,430.91 746.00,431.86 C746.00,435.45 743.96,436.00 730.55,436.02 C694.56,436.08 666.81,440.26 646.50,448.70 C630.46,455.37 613.46,465.43 600.50,475.93 Z" fill="rgb(232,85,4)"/>
<path d="M 0.00 0.00 L 1387.00 0.00 L 1387.00 756.00 L 0.00 756.00 ZM 546.30 522.40 C550.36,528.28 558.19,523.61 559.55,514.48 C559.93,512.00 561.00,508.97 561.95,507.74 C564.21,504.78 570.00,492.73 570.02,490.92 C570.02,490.14 570.62,487.92 571.35,486.00 C572.58,482.73 573.85,479.87 580.93,464.50 C583.98,457.87 585.64,453.52 587.41,447.50 C588.05,445.30 590.10,440.58 591.95,437.00 C593.81,433.42 596.42,427.58 597.76,424.00 C599.10,420.42 601.46,414.12 603.01,410.00 C604.55,405.88 606.98,400.29 608.41,397.58 C609.83,394.87 611.00,391.98 611.00,391.15 C611.00,389.49 613.57,383.52 617.96,375.00 C619.51,371.98 621.11,367.98 621.50,366.13 C622.11,363.26 627.10,351.42 630.08,345.76 C630.59,344.81 631.00,343.38 631.00,342.59 C631.00,341.80 632.37,337.63 634.05,333.33 C638.23,322.62 638.09,322.94 644.23,310.00 C647.22,303.67 650.47,295.80 651.44,292.50 C652.40,289.20 654.95,283.03 657.10,278.80 C659.24,274.56 661.00,270.49 661.00,269.76 C661.00,269.02 661.93,266.64 663.06,264.46 C664.19,262.28 666.22,257.12 667.58,253.00 C668.94,248.88 670.84,244.38 671.82,243.00 C674.22,239.62 678.82,228.84 680.99,221.50 C682.73,215.64 685.32,208.86 689.12,200.22 C691.56,194.68 691.50,190.90 688.93,187.63 C687.00,185.19 686.30,185.00 678.96,185.00 C674.62,185.00 669.14,185.64 666.78,186.43 C662.74,187.78 656.56,189.13 645.76,191.04 C643.15,191.50 639.78,192.54 638.26,193.35 C636.74,194.16 632.35,195.62 628.50,196.59 C624.65,197.56 618.35,200.01 614.50,202.04 C599.00,210.20 596.02,211.88 592.83,214.29 C591.00,215.67 586.01,218.90 581.75,221.47 C576.10,224.88 569.73,230.42 558.25,241.91 C543.54,256.64 537.00,263.87 537.00,265.43 C537.00,265.79 536.06,267.08 534.92,268.29 C533.77,269.51 532.13,271.85 531.28,273.50 C530.43,275.15 529.11,276.86 528.35,277.31 C527.59,277.75 525.58,280.90 523.87,284.31 C522.17,287.71 519.78,291.85 518.57,293.50 C517.35,295.15 515.76,298.66 515.03,301.30 C514.31,303.94 512.89,307.14 511.89,308.41 C510.89,309.68 509.63,312.70 509.09,315.11 C508.54,317.53 506.95,322.55 505.55,326.27 C504.15,330.00 503.00,334.06 503.00,335.30 C503.00,336.54 502.38,338.44 501.63,339.53 C500.88,340.61 499.93,345.54 499.52,350.47 C499.12,355.40 498.35,360.58 497.81,361.97 C497.28,363.36 496.67,372.83 496.47,383.00 C496.15,398.29 496.44,403.45 498.09,412.77 C499.19,418.96 499.88,424.39 499.61,424.82 C498.95,425.89 500.27,431.09 505.99,450.00 C507.74,455.77 510.02,461.96 511.04,463.73 C512.07,465.51 513.42,468.89 514.04,471.23 C514.65,473.58 516.86,478.20 518.94,481.50 C524.47,490.30 526.62,493.92 529.59,499.50 C532.22,504.43 535.48,509.00 541.45,516.15 C543.13,518.16 545.31,520.97 546.30,522.40 ZM 675.00 590.34 C676.38,590.55 683.83,590.79 691.58,590.86 C715.91,591.10 742.66,587.72 750.99,583.35 C753.46,582.06 756.20,581.00 757.09,581.00 C760.70,581.00 780.79,572.58 789.00,567.62 C790.38,566.79 794.70,564.30 798.61,562.09 C802.52,559.88 807.54,556.59 809.77,554.79 C812.00,552.98 816.09,549.92 818.86,548.00 C823.35,544.89 823.91,544.09 823.95,540.82 C824.04,534.06 822.68,532.30 814.28,528.36 C801.56,522.39 800.77,521.87 795.02,515.63 C791.98,512.34 788.04,508.09 786.25,506.19 C784.46,504.28 783.00,502.21 783.00,501.58 C783.00,500.96 781.76,499.31 780.25,497.93 C776.96,494.92 774.60,490.85 770.79,481.62 C768.04,474.95 767.87,471.08 770.32,470.93 C771.57,470.86 798.69,471.25 805.50,471.45 C810.76,471.59 811.79,472.36 812.61,476.75 C812.99,478.77 814.58,482.60 816.15,485.26 C817.72,487.91 819.00,490.88 819.00,491.84 C819.00,492.81 819.48,494.08 820.07,494.67 C820.66,495.26 823.11,501.53 825.52,508.62 C831.00,524.71 832.58,526.23 841.88,524.37 C844.34,523.88 845.76,522.51 848.57,517.89 C850.53,514.66 852.71,511.68 853.43,511.26 C854.14,510.84 855.44,509.12 856.30,507.43 C857.16,505.73 859.14,502.98 860.68,501.30 C862.23,499.62 865.48,494.48 867.90,489.87 C870.32,485.27 873.13,480.31 874.15,478.85 C875.17,477.39 876.00,475.71 876.00,475.11 C876.00,474.52 877.52,470.76 879.39,466.77 C886.51,451.47 887.00,450.03 887.00,444.10 C887.00,440.48 886.50,437.83 885.69,437.15 C883.98,435.74 879.17,436.59 876.00,438.87 C873.47,440.69 867.79,442.96 860.50,445.08 C849.73,448.21 840.42,448.55 742.00,449.36 C696.37,449.74 693.17,449.88 687.87,451.79 C684.77,452.91 678.28,454.30 673.45,454.89 C663.23,456.14 644.78,462.19 640.67,465.63 C639.12,466.93 637.04,468.00 636.06,468.00 C635.07,468.00 633.20,468.84 631.88,469.86 C630.57,470.89 627.56,472.71 625.20,473.91 C609.91,481.67 580.69,510.40 577.88,520.43 C577.41,522.12 575.40,525.25 573.43,527.39 C569.27,531.90 568.00,534.76 568.00,539.60 C568.00,542.40 568.87,543.92 572.48,547.43 C576.72,551.55 594.09,562.92 599.15,564.89 C600.44,565.39 603.11,566.90 605.07,568.25 C609.79,571.49 629.99,580.37 637.25,582.39 C640.41,583.28 645.36,584.65 648.25,585.45 C652.67,586.68 659.90,588.00 675.00,590.34 ZM 800.16 438.66 C802.00,439.21 803.95,439.52 804.50,439.36 C805.05,439.19 814.28,438.86 825.00,438.62 C839.19,438.29 845.73,437.74 849.00,436.60 C851.47,435.74 854.70,435.02 856.17,435.01 C861.48,434.99 873.12,428.34 879.67,421.58 C888.42,412.58 891.07,405.72 893.05,386.98 C894.85,370.03 893.23,354.39 887.07,329.00 C886.60,327.08 885.65,323.92 884.95,322.00 C880.78,310.53 879.47,307.34 878.37,306.00 C877.70,305.17 876.06,301.50 874.73,297.84 C873.40,294.18 869.07,286.38 865.10,280.52 C861.14,274.65 857.46,268.72 856.94,267.34 C856.42,265.97 853.52,262.58 850.49,259.82 C847.47,257.06 845.00,254.25 845.00,253.57 C845.00,251.96 826.64,233.77 821.53,230.31 C819.34,228.83 816.49,226.36 815.19,224.81 C813.89,223.27 812.20,222.00 811.45,222.00 C810.69,222.00 809.64,221.21 809.11,220.25 C808.59,219.29 805.98,217.39 803.33,216.04 C800.67,214.69 793.05,210.53 786.38,206.79 C779.72,203.06 772.74,199.71 770.88,199.36 C769.02,199.00 765.42,197.67 762.87,196.40 C760.32,195.13 754.02,193.14 748.87,191.98 C743.72,190.82 737.25,189.24 734.50,188.46 C729.57,187.07 719.98,185.22 712.85,184.29 C710.58,183.99 707.85,184.45 705.60,185.52 C702.15,187.16 702.00,187.44 702.00,192.42 C702.00,195.44 702.61,198.43 703.47,199.56 C704.28,200.63 704.95,202.77 704.97,204.32 C704.99,205.87 706.14,209.08 707.52,211.45 C708.91,213.82 710.68,218.17 711.45,221.13 C712.22,224.08 713.98,228.52 715.35,231.00 C716.72,233.48 718.79,238.43 719.94,242.00 C721.09,245.57 722.47,249.28 723.02,250.24 C723.56,251.19 725.81,256.79 728.02,262.68 C730.24,268.57 732.70,274.11 733.49,274.99 C734.28,275.86 735.45,279.04 736.09,282.04 C736.73,285.04 738.36,289.75 739.71,292.50 C742.18,297.51 744.08,302.45 748.58,315.50 C749.91,319.35 752.77,326.55 754.93,331.50 C757.09,336.45 759.51,342.52 760.30,345.00 C761.10,347.48 762.66,351.75 763.77,354.50 C764.88,357.25 767.66,364.45 769.94,370.50 C773.97,381.14 776.00,385.86 777.90,389.00 C778.40,389.83 780.20,395.45 781.91,401.50 C783.61,407.55 785.90,413.72 787.00,415.20 C788.09,416.69 790.13,421.40 791.53,425.67 C794.73,435.48 796.02,437.42 800.16,438.66 ZM 589.16 480.25 C589.66,481.21 591.07,482.00 592.29,482.00 C595.23,482.00 603.00,477.81 607.17,473.97 C614.81,466.94 634.78,455.34 643.97,452.59 C646.46,451.85 650.08,450.33 652.00,449.21 C657.39,446.07 665.36,444.06 678.62,442.48 C685.29,441.69 692.04,440.56 693.62,439.95 C695.42,439.27 705.09,438.89 719.50,438.93 C740.77,439.00 742.74,438.86 745.75,437.02 C747.94,435.68 749.00,434.26 749.00,432.66 C749.00,429.54 744.50,417.21 742.59,415.10 C741.76,414.19 740.43,410.92 739.63,407.83 C738.83,404.75 737.46,400.85 736.58,399.16 C735.71,397.48 735.00,395.10 735.00,393.88 C735.00,392.66 734.28,390.86 733.40,389.89 C732.52,388.92 730.73,384.43 729.41,379.90 C728.10,375.38 726.39,370.97 725.62,370.09 C723.59,367.78 720.74,361.00 716.54,348.50 C714.51,342.45 712.27,336.83 711.55,336.00 C710.83,335.17 709.67,332.70 708.97,330.50 C706.52,322.81 703.77,315.46 701.35,310.15 C700.02,307.20 697.32,300.00 695.36,294.15 C691.29,281.99 686.80,271.91 684.65,270.13 C682.07,267.98 676.45,267.59 674.89,269.44 C674.13,270.35 672.75,271.86 671.84,272.80 C669.97,274.72 665.00,285.51 665.00,287.64 C665.00,288.41 662.78,293.45 660.08,298.85 C657.37,304.25 654.41,311.10 653.51,314.08 C652.61,317.06 651.05,321.30 650.04,323.50 C647.25,329.58 645.36,334.04 643.48,339.00 C642.54,341.48 640.63,345.97 639.24,348.98 C637.85,351.99 635.21,358.19 633.37,362.76 C631.53,367.32 629.34,372.37 628.51,373.98 C627.68,375.59 627.00,377.64 627.00,378.53 C627.00,380.37 622.04,392.51 618.90,398.34 C617.77,400.45 616.18,404.38 615.38,407.09 C614.58,409.79 611.46,417.15 608.46,423.45 C605.46,429.74 602.34,437.44 601.53,440.56 C600.71,443.68 599.66,446.75 599.19,447.37 C598.71,447.99 596.37,453.00 593.97,458.50 C589.45,468.90 587.60,477.24 589.16,480.25 Z" fill="rgb(239,239,239)"/>
<path d="M 675.00 590.34 C659.90,588.00 652.67,586.68 648.25,585.45 C645.36,584.65 640.41,583.28 637.25,582.39 C629.99,580.37 609.79,571.49 605.07,568.25 C603.11,566.90 600.44,565.39 599.15,564.89 C594.09,562.92 576.72,551.55 572.48,547.43 C568.87,543.92 568.00,542.40 568.00,539.60 C568.00,534.76 569.27,531.90 573.43,527.39 C575.40,525.25 577.41,522.12 577.88,520.43 C580.69,510.40 609.91,481.67 625.20,473.91 C627.56,472.71 630.57,470.89 631.88,469.86 C633.20,468.84 635.07,468.00 636.06,468.00 C637.04,468.00 639.12,466.93 640.67,465.63 C644.78,462.19 663.23,456.14 673.45,454.89 C678.28,454.30 684.77,452.91 687.87,451.79 C693.17,449.88 696.37,449.74 742.00,449.36 C840.42,448.55 849.73,448.21 860.50,445.08 C867.79,442.96 873.47,440.69 876.00,438.87 C879.17,436.59 883.98,435.74 885.69,437.15 C886.50,437.83 887.00,440.48 887.00,444.10 C887.00,450.03 886.51,451.47 879.39,466.77 C877.52,470.76 876.00,474.52 876.00,475.11 C876.00,475.71 875.17,477.39 874.15,478.85 C873.13,480.31 870.32,485.27 867.90,489.87 C865.48,494.48 862.23,499.62 860.68,501.30 C859.14,502.98 857.16,505.73 856.30,507.43 C855.44,509.12 854.14,510.84 853.43,511.26 C852.71,511.68 850.53,514.66 848.57,517.89 C845.76,522.51 844.34,523.88 841.88,524.37 C832.58,526.23 831.00,524.71 825.52,508.62 C823.11,501.53 820.66,495.26 820.07,494.67 C819.48,494.08 819.00,492.81 819.00,491.84 C819.00,490.88 817.72,487.91 816.15,485.26 C814.58,482.60 812.99,478.77 812.61,476.75 C811.79,472.36 810.76,471.59 805.50,471.45 C798.69,471.25 771.57,470.86 770.32,470.93 C767.87,471.08 768.04,474.95 770.79,481.62 C774.60,490.85 776.96,494.92 780.25,497.93 C781.76,499.31 783.00,500.96 783.00,501.58 C783.00,502.21 784.46,504.28 786.25,506.19 C788.04,508.09 791.98,512.34 795.02,515.63 C800.77,521.87 801.56,522.39 814.28,528.36 C822.68,532.30 824.04,534.06 823.95,540.82 C823.91,544.09 823.35,544.89 818.86,548.00 C816.09,549.92 812.00,552.98 809.77,554.79 C807.54,556.59 802.52,559.88 798.61,562.09 C794.70,564.30 790.38,566.79 789.00,567.62 C780.79,572.58 760.70,581.00 757.09,581.00 C756.20,581.00 753.46,582.06 750.99,583.35 C742.66,587.72 715.91,591.10 691.58,590.86 C683.83,590.79 676.38,590.55 675.00,590.34 ZM 720.03 586.97 C731.66,585.55 751.00,580.77 762.73,576.42 C776.63,571.27 795.79,561.11 807.91,552.47 C826.83,538.98 827.08,538.02 813.46,531.20 C799.07,524.01 784.09,510.00 775.49,495.69 C771.43,488.93 765.00,473.88 765.00,471.14 C765.00,469.01 765.14,469.00 788.86,469.00 L 812.73 469.00 L 815.83 476.25 C817.54,480.24 821.15,489.12 823.86,496.00 C831.56,515.51 833.62,519.71 836.41,521.53 C838.79,523.09 839.20,523.10 841.42,521.64 C843.62,520.20 861.00,498.00 861.00,496.63 C861.00,496.30 862.64,493.47 864.65,490.34 C873.00,477.28 885.00,448.67 885.00,441.81 C885.00,438.00 883.30,438.16 873.54,442.91 C856.42,451.24 848.39,451.98 774.80,451.99 C711.25,452.00 696.73,452.68 677.40,456.54 C641.93,463.62 610.39,482.60 589.56,509.43 C580.10,521.62 571.00,535.98 571.00,538.74 C571.00,540.22 572.29,542.40 574.25,544.23 C579.08,548.75 601.34,563.18 610.50,567.75 C628.13,576.52 649.90,583.51 668.80,586.45 C679.35,588.09 708.38,588.39 720.03,586.97 ZM 546.30 522.40 C545.31,520.97 543.13,518.16 541.45,516.15 C535.48,509.00 532.22,504.43 529.59,499.50 C526.62,493.92 524.47,490.30 518.94,481.50 C516.86,478.20 514.65,473.58 514.04,471.23 C513.42,468.89 512.07,465.51 511.04,463.73 C510.02,461.96 507.74,455.77 505.99,450.00 C500.27,431.09 498.95,425.89 499.61,424.82 C499.88,424.39 499.19,418.96 498.09,412.77 C496.44,403.45 496.15,398.29 496.47,383.00 C496.67,372.83 497.28,363.36 497.81,361.97 C498.35,360.58 499.12,355.40 499.52,350.47 C499.93,345.54 500.88,340.61 501.63,339.53 C502.38,338.44 503.00,336.54 503.00,335.30 C503.00,334.06 504.15,330.00 505.55,326.27 C506.95,322.55 508.54,317.53 509.09,315.11 C509.63,312.70 510.89,309.68 511.89,308.41 C512.89,307.14 514.31,303.94 515.03,301.30 C515.76,298.66 517.35,295.15 518.57,293.50 C519.78,291.85 522.17,287.71 523.87,284.31 C525.58,280.90 527.59,277.75 528.35,277.31 C529.11,276.86 530.43,275.15 531.28,273.50 C532.13,271.85 533.77,269.51 534.92,268.29 C536.06,267.08 537.00,265.79 537.00,265.43 C537.00,263.87 543.54,256.64 558.25,241.91 C569.73,230.42 576.10,224.88 581.75,221.47 C586.01,218.90 591.00,215.67 592.83,214.29 C596.02,211.88 599.00,210.20 614.50,202.04 C618.35,200.01 624.65,197.56 628.50,196.59 C632.35,195.62 636.74,194.16 638.26,193.35 C639.78,192.54 643.15,191.50 645.76,191.04 C656.56,189.13 662.74,187.78 666.78,186.43 C669.14,185.64 674.62,185.00 678.96,185.00 C686.30,185.00 687.00,185.19 688.93,187.63 C691.50,190.90 691.56,194.68 689.12,200.22 C685.32,208.86 682.73,215.64 680.99,221.50 C678.82,228.84 674.22,239.62 671.82,243.00 C670.84,244.38 668.94,248.88 667.58,253.00 C666.22,257.12 664.19,262.28 663.06,264.46 C661.93,266.64 661.00,269.02 661.00,269.76 C661.00,270.49 659.24,274.56 657.10,278.80 C654.95,283.03 652.40,289.20 651.44,292.50 C650.47,295.80 647.22,303.67 644.23,310.00 C638.09,322.94 638.23,322.62 634.05,333.33 C632.37,337.63 631.00,341.80 631.00,342.59 C631.00,343.38 630.59,344.81 630.08,345.76 C627.10,351.42 622.11,363.26 621.50,366.13 C621.11,367.98 619.51,371.98 617.96,375.00 C613.57,383.52 611.00,389.49 611.00,391.15 C611.00,391.98 609.83,394.87 608.41,397.58 C606.98,400.29 604.55,405.88 603.01,410.00 C601.46,414.12 599.10,420.42 597.76,424.00 C596.42,427.58 593.81,433.42 591.95,437.00 C590.10,440.58 588.05,445.30 587.41,447.50 C585.64,453.52 583.98,457.87 580.93,464.50 C573.85,479.87 572.58,482.73 571.35,486.00 C570.62,487.92 570.02,490.14 570.02,490.92 C570.00,492.73 564.21,504.78 561.95,507.74 C561.00,508.97 559.93,512.00 559.55,514.48 C558.19,523.61 550.36,528.28 546.30,522.40 ZM 554.79 519.75 C555.87,518.44 571.13,482.20 583.51,451.50 C587.51,441.60 602.36,405.38 616.52,371.00 C630.67,336.62 644.62,302.65 647.51,295.50 C650.41,288.35 656.70,273.05 661.50,261.50 C666.30,249.95 672.13,235.77 674.45,230.00 C676.78,224.23 681.31,213.26 684.52,205.64 C691.80,188.36 691.82,188.42 679.10,188.69 C661.98,189.05 636.40,195.77 615.82,205.32 C540.15,240.45 493.93,318.29 499.94,400.50 C502.82,439.80 515.32,474.47 537.93,505.90 C548.55,520.65 551.82,523.34 554.79,519.75 ZM 589.16 480.25 C587.60,477.24 589.45,468.90 593.97,458.50 C596.37,453.00 598.71,447.99 599.19,447.37 C599.66,446.75 600.71,443.68 601.53,440.56 C602.34,437.44 605.46,429.74 608.46,423.45 C611.46,417.15 614.58,409.79 615.38,407.09 C616.18,404.38 617.77,400.45 618.90,398.34 C622.04,392.51 627.00,380.37 627.00,378.53 C627.00,377.64 627.68,375.59 628.51,373.98 C629.34,372.37 631.53,367.32 633.37,362.76 C635.21,358.19 637.85,351.99 639.24,348.98 C640.63,345.97 642.54,341.48 643.48,339.00 C645.36,334.04 647.25,329.58 650.04,323.50 C651.05,321.30 652.61,317.06 653.51,314.08 C654.41,311.10 657.37,304.25 660.08,298.85 C662.78,293.45 665.00,288.41 665.00,287.64 C665.00,285.51 669.97,274.72 671.84,272.80 C672.75,271.86 674.13,270.35 674.89,269.44 C676.45,267.59 682.07,267.98 684.65,270.13 C686.80,271.91 691.29,281.99 695.36,294.15 C697.32,300.00 700.02,307.20 701.35,310.15 C703.77,315.46 706.52,322.81 708.97,330.50 C709.67,332.70 710.83,335.17 711.55,336.00 C712.27,336.83 714.51,342.45 716.54,348.50 C720.74,361.00 723.59,367.78 725.62,370.09 C726.39,370.97 728.10,375.38 729.41,379.90 C730.73,384.43 732.52,388.92 733.40,389.89 C734.28,390.86 735.00,392.66 735.00,393.88 C735.00,395.10 735.71,397.48 736.58,399.16 C737.46,400.85 738.83,404.75 739.63,407.83 C740.43,410.92 741.76,414.19 742.59,415.10 C744.50,417.21 749.00,429.54 749.00,432.66 C749.00,434.26 747.94,435.68 745.75,437.02 C742.74,438.86 740.77,439.00 719.50,438.93 C705.09,438.89 695.42,439.27 693.62,439.95 C692.04,440.56 685.29,441.69 678.62,442.48 C665.36,444.06 657.39,446.07 652.00,449.21 C650.08,450.33 646.46,451.85 643.97,452.59 C634.78,455.34 614.81,466.94 607.17,473.97 C603.00,477.81 595.23,482.00 592.29,482.00 C591.07,482.00 589.66,481.21 589.16,480.25 ZM 600.50 475.93 C613.46,465.43 630.46,455.37 646.50,448.70 C666.81,440.26 694.56,436.08 730.55,436.02 C743.96,436.00 746.00,435.45 746.00,431.86 C746.00,430.91 741.01,417.61 734.90,402.31 C728.80,387.02 718.65,361.23 712.35,345.00 C685.29,275.36 683.84,271.88 681.27,270.71 C676.38,268.49 675.78,269.43 663.62,298.50 C648.56,334.48 645.34,342.22 636.19,364.50 C631.22,376.60 618.83,406.74 608.66,431.47 C589.75,477.44 588.96,480.02 593.79,479.99 C594.73,479.98 597.75,478.16 600.50,475.93 ZM 800.16 438.66 C796.02,437.42 794.73,435.48 791.53,425.67 C790.13,421.40 788.09,416.69 787.00,415.20 C785.90,413.72 783.61,407.55 781.91,401.50 C780.20,395.45 778.40,389.83 777.90,389.00 C776.00,385.86 773.97,381.14 769.94,370.50 C767.66,364.45 764.88,357.25 763.77,354.50 C762.66,351.75 761.10,347.48 760.30,345.00 C759.51,342.52 757.09,336.45 754.93,331.50 C752.77,326.55 749.91,319.35 748.58,315.50 C744.08,302.45 742.18,297.51 739.71,292.50 C738.36,289.75 736.73,285.04 736.09,282.04 C735.45,279.04 734.28,275.86 733.49,274.99 C732.70,274.11 730.24,268.57 728.02,262.68 C725.81,256.79 723.56,251.19 723.02,250.24 C722.47,249.28 721.09,245.57 719.94,242.00 C718.79,238.43 716.72,233.48 715.35,231.00 C713.98,228.52 712.22,224.08 711.45,221.13 C710.68,218.17 708.91,213.82 707.52,211.45 C706.14,209.08 704.99,205.87 704.97,204.32 C704.95,202.77 704.28,200.63 703.47,199.56 C702.61,198.43 702.00,195.44 702.00,192.42 C702.00,187.44 702.15,187.16 705.60,185.52 C707.85,184.45 710.58,183.99 712.85,184.29 C719.98,185.22 729.57,187.07 734.50,188.46 C737.25,189.24 743.72,190.82 748.87,191.98 C754.02,193.14 760.32,195.13 762.87,196.40 C765.42,197.67 769.02,199.00 770.88,199.36 C772.74,199.71 779.72,203.06 786.38,206.79 C793.05,210.53 800.67,214.69 803.33,216.04 C805.98,217.39 808.59,219.29 809.11,220.25 C809.64,221.21 810.69,222.00 811.45,222.00 C812.20,222.00 813.89,223.27 815.19,224.81 C816.49,226.36 819.34,228.83 821.53,230.31 C826.64,233.77 845.00,251.96 845.00,253.57 C845.00,254.25 847.47,257.06 850.49,259.82 C853.52,262.58 856.42,265.97 856.94,267.34 C857.46,268.72 861.14,274.65 865.10,280.52 C869.07,286.38 873.40,294.18 874.73,297.84 C876.06,301.50 877.70,305.17 878.37,306.00 C879.47,307.34 880.78,310.53 884.95,322.00 C885.65,323.92 886.60,327.08 887.07,329.00 C893.23,354.39 894.85,370.03 893.05,386.98 C891.07,405.72 888.42,412.58 879.67,421.58 C873.12,428.34 861.48,434.99 856.17,435.01 C854.70,435.02 851.47,435.74 849.00,436.60 C845.73,437.74 839.19,438.29 825.00,438.62 C814.28,438.86 805.05,439.19 804.50,439.36 C803.95,439.52 802.00,439.21 800.16,438.66 ZM 830.00 436.00 C862.51,434.24 877.00,427.10 885.51,408.67 C890.25,398.42 891.34,390.69 890.75,371.61 C889.72,338.24 878.77,305.32 858.84,275.65 C827.06,228.35 779.11,197.78 723.84,189.57 C711.14,187.69 706.80,187.60 705.20,189.20 C702.91,191.49 701.22,186.75 732.55,266.00 C751.08,312.87 753.29,318.54 770.51,363.00 C800.37,440.11 798.39,435.37 801.07,436.12 C804.56,437.10 810.24,437.07 830.00,436.00 Z" fill="rgb(250,230,214)"/>
</g>
</svg>