<svg xmlns="http://www.w3.org/2000/svg" width="1387" height="756" viewBox="0 0 1387 756">
<g>
<path d="M 658.09 520.64 C656.22,520.01 653.75,518.23 652.59,516.68 C650.51,513.87 650.50,513.43 650.23,423.44 C649.97,337.05 649.80,328.91 653.70,325.64 C654.25,325.17 654.89,324.81 655.62,324.33 C658.21,322.64 661.33,322.50 697.46,322.50 L 736.50 322.50 L 744.00 325.17 C754.69,328.97 760.70,332.58 767.00,338.97 C772.80,344.86 777.53,352.87 780.61,362.00 C782.00,366.15 782.44,370.33 782.40,379.00 C782.33,392.02 780.42,399.22 774.41,409.13 C772.54,412.23 771.00,415.32 771.00,416.00 C771.00,416.69 773.65,420.08 776.88,423.53 C786.70,434.03 791.00,445.59 791.00,461.50 C791.00,472.47 789.21,480.04 784.25,490.00 C777.09,504.38 762.28,515.75 746.00,519.36 C737.34,521.29 663.25,522.36 658.09,520.64 ZM 657.75 517.92 C658.85,518.56 672.91,518.95 695.50,518.97 C733.94,518.99 743.16,518.21 754.00,513.97 C760.11,511.59 770.53,504.92 773.29,501.63 C780.75,492.76 786.34,480.42 788.13,468.88 C789.13,462.48 789.05,459.88 787.62,452.05 C785.49,440.43 781.67,432.75 773.83,424.32 C766.93,416.90 766.75,415.46 771.83,407.87 C777.38,399.57 779.48,391.76 779.47,379.50 C779.46,366.17 778.74,362.54 774.30,353.50 C767.90,340.42 752.23,328.73 737.57,326.07 C729.02,324.53 661.91,324.63 658.47,326.19 C657.73,326.53 657.09,326.76 656.54,327.13 C652.85,329.56 653.00,337.84 653.00,422.00 C653.00,507.16 652.92,514.46 656.37,517.07 C656.78,517.38 657.24,517.62 657.75,517.92 ZM 419.37 518.64 C417.08,516.68 416.51,515.15 415.87,509.39 C415.45,505.60 415.08,464.12 415.05,417.22 C415.00,336.67 414.79,327.33 418.93,324.60 C419.68,324.10 420.57,323.83 421.63,323.38 C426.14,321.50 431.06,322.23 434.40,325.29 C435.72,326.51 447.72,343.48 461.07,363.00 C500.84,421.16 511.82,436.72 513.60,437.40 C514.52,437.75 516.23,437.42 517.39,436.66 C518.55,435.90 527.52,423.40 537.33,408.89 C583.38,340.71 593.24,326.38 595.16,324.75 C596.49,323.62 598.90,323.00 601.96,323.00 C608.18,323.00 613.05,326.19 614.77,331.41 C615.76,334.42 615.97,354.76 615.77,425.21 L 615.50 515.16 L 612.23 518.08 C609.05,520.93 608.70,521.00 598.09,521.00 L 587.21 521.00 L 584.10 517.47 L 581.00 513.93 L 580.90 468.22 C580.85,443.07 580.49,421.38 580.11,420.00 C579.64,418.28 578.61,417.40 576.80,417.19 C574.39,416.91 572.23,419.76 548.95,454.05 C521.71,494.18 521.10,494.86 513.55,493.44 C512.87,493.32 512.32,493.25 511.78,493.12 C508.15,492.19 505.37,487.91 470.74,437.73 C463.61,427.40 456.94,418.50 455.91,417.95 C454.47,417.18 453.57,417.43 451.97,419.03 C449.92,421.08 449.90,421.45 450.60,465.32 C451.36,513.07 451.20,515.13 446.29,518.98 C444.08,520.72 442.24,521.00 432.92,521.00 C423.01,521.00 421.88,520.80 419.37,518.64 ZM 822.67 518.95 C821.24,517.83 819.61,515.24 819.04,513.20 C818.37,510.79 818.01,478.64 818.01,421.22 C818.00,336.52 817.90,328.81 821.64,325.68 C822.11,325.29 822.64,324.97 823.24,324.58 C825.31,323.22 831.08,322.96 864.58,322.75 C908.10,322.47 908.96,322.57 922.87,329.19 C942.15,338.37 954.24,357.46 955.68,381.00 C957.24,406.69 944.69,429.92 922.75,441.93 C918.49,444.27 914.76,446.58 914.46,447.07 C913.74,448.24 915.26,451.00 920.43,457.87 C931.68,472.81 948.05,495.06 951.33,499.86 C955.39,505.80 956.01,510.15 953.48,515.03 C950.90,520.03 947.17,521.22 935.26,520.84 L 924.75 520.50 L 920.89 516.00 C918.77,513.53 911.53,504.09 904.80,495.03 C883.90,466.87 871.86,451.55 869.64,450.29 C866.71,448.62 855.55,448.64 854.16,450.30 C853.45,451.16 852.98,462.49 852.79,483.39 L 852.50 515.17 L 849.23 518.08 C846.07,520.91 845.64,521.00 835.62,521.00 C826.71,521.00 824.91,520.72 822.67,518.95 ZM 824.38 515.71 L 828.26 519.27 L 836.28 518.72 C843.53,518.22 844.58,517.88 847.35,515.11 L 850.41 512.05 L 850.46 480.99 C850.49,456.10 850.27,450.46 852.85,448.49 C853.82,447.75 855.19,447.53 857.11,447.00 C861.60,445.76 870.54,447.28 873.31,449.76 C875.15,451.41 882.39,460.61 889.91,470.86 C891.78,473.41 895.38,478.06 897.91,481.19 C900.43,484.31 903.62,488.50 905.00,490.50 C906.38,492.49 908.85,495.85 910.50,497.97 C912.15,500.08 915.46,504.55 917.85,507.89 C924.13,516.66 927.57,518.50 937.68,518.50 C945.37,518.50 946.05,518.32 948.93,515.56 C953.38,511.31 953.09,507.44 947.75,499.82 C945.41,496.48 942.85,492.79 942.05,491.62 C941.25,490.46 937.43,485.26 933.55,480.08 C914.12,454.11 912.87,452.15 913.19,448.25 C913.52,444.35 916.58,441.53 925.50,436.88 C935.03,431.91 946.13,417.67 949.96,405.48 C955.35,388.38 952.97,364.30 944.85,353.81 C943.28,351.78 942.00,349.61 942.00,349.00 C942.00,347.14 931.79,336.94 927.63,334.65 C910.51,325.19 909.56,325.05 865.50,325.04 C825.04,325.03 824.73,325.07 821.85,330.82 C820.35,333.80 820.21,342.22 820.35,423.13 L 820.50 512.15 ZM 423.31 517.99 C426.96,519.46 438.81,519.15 441.99,517.51 C443.18,516.89 444.13,516.46 444.89,515.80 C448.13,513.03 448.00,506.34 448.00,465.61 C448.00,425.85 447.90,417.91 450.99,416.38 C451.85,415.94 452.97,416.02 454.40,416.03 C455.27,416.04 455.97,416.04 456.64,416.18 C459.61,416.82 461.97,420.30 475.48,440.00 C478.31,444.12 483.75,451.88 487.56,457.23 C491.38,462.59 496.42,470.01 498.77,473.74 C505.29,484.07 512.06,491.00 515.62,491.00 C517.23,491.00 519.50,490.34 520.65,489.53 C522.47,488.26 535.20,470.18 546.00,453.53 C550.38,446.78 559.84,433.08 566.82,423.39 C572.87,414.99 575.62,413.58 579.84,416.73 L 582.50 418.71 L 583.00 465.94 L 583.50 513.17 L 586.77 516.08 C589.79,518.79 590.61,519.00 598.00,519.00 C605.30,519.00 606.23,518.77 609.08,516.22 C611.15,514.37 612.41,512.12 612.84,509.47 C613.20,507.29 613.28,466.55 613.00,418.96 C612.54,338.77 612.37,332.21 610.75,329.74 C608.58,326.44 602.26,324.47 598.83,326.03 C595.92,327.36 581.85,346.04 577.10,354.89 C576.33,356.33 574.64,358.77 573.35,360.33 C572.06,361.88 571.00,363.74 571.00,364.45 C571.00,365.17 570.31,366.33 569.46,367.04 C567.89,368.33 553.84,388.68 533.22,419.50 C522.47,435.57 518.39,440.00 514.34,440.00 C512.16,440.00 507.38,435.17 502.42,427.94 C496.33,419.07 487.83,406.77 484.22,401.61 C482.72,399.47 479.70,394.95 477.50,391.56 C475.30,388.17 472.47,384.07 471.20,382.45 C469.94,380.83 465.95,375.00 462.35,369.50 C458.75,364.00 454.36,357.70 452.60,355.50 C450.83,353.30 448.06,349.32 446.44,346.67 C444.82,344.01 442.35,340.41 440.93,338.67 C439.52,336.92 437.35,333.81 436.10,331.75 C434.86,329.69 432.87,327.32 431.70,326.50 C429.26,324.79 424.73,324.54 422.07,325.96 C421.67,326.18 421.30,326.37 420.96,326.62 C417.48,329.11 417.50,336.47 417.57,422.64 C417.63,505.64 417.75,511.97 419.37,514.45 C420.33,515.91 422.10,517.50 423.31,517.99 ZM 216.95 518.25 C211.38,513.27 211.73,509.84 219.79,490.93 C223.64,481.90 230.72,465.05 235.52,453.50 C244.70,431.44 269.12,373.26 281.21,344.66 C285.13,335.39 289.05,326.93 289.92,325.86 C293.13,321.89 306.44,321.15 313.12,324.57 C314.55,325.31 316.42,327.39 317.27,329.21 C319.28,333.52 344.64,392.47 372.20,456.87 C391.75,502.56 395.26,510.50 392.71,515.03 C392.11,516.11 391.16,517.00 390.00,518.15 C387.23,520.92 386.86,521.00 376.65,521.00 C362.83,521.00 362.27,520.54 354.07,502.27 C350.67,494.69 347.15,487.94 346.25,487.25 C344.06,485.57 264.33,485.44 260.67,487.10 C258.83,487.94 256.72,491.71 251.97,502.65 C248.06,511.64 244.75,517.84 243.21,519.05 C241.11,520.70 239.13,521.00 230.38,521.00 C220.50,521.00 219.89,520.87 216.95,518.25 ZM 976.92 518.22 C974.57,516.12 973.68,514.34 973.31,510.97 C972.85,506.92 974.45,502.55 990.28,464.50 C999.89,441.40 1013.71,408.10 1020.98,390.50 C1028.26,372.90 1035.45,355.58 1036.97,352.00 C1038.49,348.42 1041.44,341.31 1043.53,336.19 C1048.54,323.93 1049.77,323.00 1061.06,323.00 C1072.34,323.00 1074.38,324.51 1079.06,336.24 C1082.59,345.13 1091.83,366.70 1126.24,446.50 C1138.34,474.55 1149.13,499.75 1150.21,502.50 C1152.89,509.26 1152.16,514.58 1148.05,518.25 C1145.11,520.87 1144.49,521.00 1134.71,521.00 C1126.99,521.00 1123.89,520.61 1122.20,519.43 C1119.79,517.74 1116.28,511.26 1109.86,496.67 C1107.64,491.63 1105.30,487.18 1104.66,486.77 C1104.02,486.36 1084.74,486.02 1061.82,486.02 C1026.95,486.00 1019.91,486.23 1018.71,487.43 C1017.92,488.22 1014.65,495.01 1011.44,502.51 C1003.77,520.44 1003.12,521.00 989.94,521.00 C980.52,521.00 979.88,520.86 976.92,518.22 ZM 219.02 516.02 L 222.03 519.25 L 230.53 518.80 C238.12,518.40 239.32,518.07 241.89,515.61 C243.47,514.09 245.54,510.97 246.49,508.68 C253.96,490.59 255.97,486.83 259.00,485.29 C262.11,483.72 342.36,483.43 346.43,484.98 C349.48,486.13 352.08,490.14 355.54,499.00 C360.48,511.65 362.21,514.35 366.84,516.69 C374.45,520.53 386.98,518.64 389.88,513.22 C391.15,510.85 389.72,503.60 386.65,496.89 C385.30,493.92 382.52,487.67 380.49,483.00 C378.45,478.33 375.90,472.53 374.83,470.13 C373.75,467.72 371.99,463.44 370.90,460.63 C369.82,457.81 368.28,454.15 367.47,452.50 C364.96,447.34 357.90,430.63 356.98,427.70 C355.99,424.50 351.33,413.82 346.38,403.36 C344.52,399.43 343.00,395.89 343.00,395.49 C343.00,394.77 338.21,383.67 333.52,373.50 C330.95,367.94 324.30,352.41 318.38,338.15 C314.93,329.83 314.07,328.59 310.58,326.80 C307.49,325.21 305.29,324.88 300.15,325.20 C292.77,325.67 291.20,327.00 287.72,335.75 C280.40,354.12 272.38,373.29 268.81,381.00 C264.93,389.35 257.00,407.82 257.00,408.50 C257.00,409.22 249.13,428.08 247.90,430.32 C247.35,431.31 245.61,435.59 244.04,439.82 C242.46,444.04 239.96,450.20 238.47,453.50 C236.98,456.80 233.83,464.23 231.46,470.00 C229.09,475.77 225.50,484.33 223.48,489.00 C214.80,509.07 214.46,511.14 219.02,516.02 ZM 982.35 517.37 C988.22,519.45 994.42,519.33 998.90,517.05 C1003.05,514.93 1005.28,511.13 1010.97,496.50 C1012.68,492.10 1015.21,487.49 1016.60,486.25 L 1019.11 484.00 L 1062.31 484.02 C1086.06,484.02 1106.00,484.36 1106.62,484.77 C1108.09,485.74 1111.38,492.30 1114.38,500.29 C1117.32,508.09 1120.96,514.03 1124.49,516.81 C1126.73,518.57 1128.26,518.83 1135.11,518.56 C1142.36,518.29 1143.41,517.98 1146.15,515.38 C1148.76,512.90 1149.12,511.95 1148.74,508.50 C1148.50,506.30 1146.84,501.12 1145.05,497.00 C1143.26,492.88 1138.88,482.75 1135.31,474.50 C1131.74,466.25 1128.47,458.81 1128.04,457.97 C1127.61,457.13 1125.38,451.78 1123.09,446.09 C1120.79,440.40 1118.08,434.12 1117.05,432.12 C1115.01,428.16 1114.86,427.83 1109.14,414.00 C1102.93,398.98 1099.36,390.60 1092.62,375.25 C1084.84,357.52 1082.13,351.14 1078.39,341.71 C1073.09,328.37 1071.03,326.04 1063.89,325.32 C1060.55,324.98 1056.77,325.25 1054.53,325.99 C1050.56,327.30 1051.22,326.23 1042.83,345.00 C1041.73,347.48 1039.78,351.75 1038.49,354.50 C1037.21,357.25 1035.85,360.62 1035.46,362.00 C1035.08,363.38 1030.60,374.17 1025.52,386.00 C1020.44,397.83 1015.94,408.62 1015.52,410.00 C1014.69,412.72 1004.56,437.56 1000.02,448.00 C998.47,451.58 996.40,456.52 995.43,459.00 C994.46,461.48 992.39,466.34 990.83,469.82 C989.27,473.30 988.00,476.72 988.00,477.43 C988.00,478.14 986.65,481.25 985.00,484.34 C983.35,487.43 982.00,490.54 982.00,491.25 C982.00,491.95 981.14,494.13 980.09,496.09 C979.04,498.06 977.51,501.92 976.69,504.68 C974.68,511.45 976.37,515.25 982.35,517.37 ZM 904.17 415.53 C897.31,417.96 857.71,418.76 853.82,416.54 C850.18,414.46 849.70,409.81 850.14,380.61 C850.46,359.63 850.69,356.88 852.29,355.29 C853.90,353.67 856.36,353.50 877.79,353.50 L 901.50 353.50 L 907.00 356.38 C913.42,359.74 917.17,363.57 920.81,370.50 C923.06,374.80 923.44,376.76 923.46,384.50 C923.48,392.05 923.10,394.31 921.05,398.50 C917.50,405.75 909.80,413.53 904.17,415.53 ZM 733.36 488.93 C724.20,489.95 692.87,490.09 688.53,489.14 C683.51,488.04 683.03,485.70 683.01,462.22 C683.00,439.72 683.81,434.75 687.66,433.68 C688.67,433.40 700.08,433.26 713.00,433.38 C740.39,433.62 742.52,434.12 750.75,442.13 C758.48,449.66 760.87,459.48 757.61,470.31 C754.39,481.01 745.88,487.55 733.36,488.93 ZM 905.50 411.84 C915.13,406.73 920.03,398.84 920.79,387.25 C921.85,371.02 914.45,360.44 899.29,356.49 C892.66,354.76 859.77,354.37 855.57,355.98 L 853.00 356.95 L 853.00 384.78 C853.00,405.70 853.31,412.91 854.25,413.86 C855.20,414.82 860.89,415.05 878.00,414.81 C900.15,414.50 900.58,414.46 905.50,411.84 ZM 740.37 484.96 C750.27,481.26 756.43,472.19 756.33,461.44 C756.23,450.52 750.23,441.73 740.37,438.04 C735.47,436.20 732.62,436.00 711.66,436.00 C694.90,436.00 688.06,436.34 687.20,437.20 C685.90,438.50 685.39,485.06 686.67,486.33 C687.03,486.70 698.04,487.00 711.13,487.00 C732.62,487.00 735.45,486.80 740.37,484.96 ZM 737.92 401.95 L 731.50 405.50 L 710.42 405.85 L 689.34 406.19 L 686.42 403.68 L 683.50 401.17 L 683.50 356.83 L 685.94 354.85 C688.24,352.98 689.69,352.88 709.94,353.18 C731.05,353.49 731.60,353.56 736.50,356.15 C746.10,361.24 750.22,368.24 750.22,379.42 C750.22,385.62 749.75,387.74 747.28,392.61 C744.73,397.64 743.49,398.88 737.92,401.95 ZM 734.50 400.62 C743.67,396.28 748.02,389.40 747.98,379.28 C747.95,372.39 745.61,366.80 740.87,362.30 C734.69,356.44 731.50,355.70 710.50,355.23 C698.39,354.97 690.50,355.20 688.75,355.88 L 686.00 356.95 L 686.00 378.78 C686.00,394.42 686.34,400.94 687.20,401.80 C688.06,402.66 694.29,403.00 708.95,402.99 C728.47,402.98 729.75,402.86 734.50,400.62 ZM 331.00 453.00 C329.10,454.90 327.67,455.00 302.95,455.00 L 276.91 455.00 L 274.45 452.55 C273.10,451.20 272.00,449.40 272.00,448.55 C272.00,447.71 274.51,441.05 277.57,433.76 C290.50,402.99 292.87,397.28 294.46,393.06 C296.46,387.77 298.42,386.07 302.63,386.03 C306.53,385.99 306.91,386.48 311.41,397.50 C313.44,402.45 315.80,407.85 316.67,409.50 C318.06,412.14 322.95,423.19 330.59,441.00 C333.49,447.76 333.58,450.42 331.00,453.00 ZM 1089.93 452.37 L 1087.85 455.00 L 1062.18 454.97 C1037.02,454.94 1033.86,454.59 1031.73,451.59 C1030.29,449.56 1032.49,441.93 1037.52,431.50 C1039.00,428.44 1048.32,406.24 1052.60,395.59 C1053.91,392.34 1055.73,388.86 1056.64,387.84 C1058.75,385.51 1063.21,385.47 1065.27,387.75 C1067.27,389.97 1072.37,401.02 1079.56,418.69 C1082.65,426.28 1086.71,435.56 1088.59,439.30 C1092.56,447.24 1092.73,448.81 1089.93,452.37 ZM 329.80 451.80 C330.46,451.14 331.00,450.03 331.00,449.32 C331.00,448.62 328.02,441.40 324.38,433.27 C320.73,425.15 315.09,412.20 311.84,404.50 C308.58,396.80 305.04,389.61 303.96,388.53 C302.01,386.56 301.99,386.56 300.16,388.53 C299.15,389.61 295.93,396.35 293.00,403.50 C290.08,410.65 284.83,423.42 281.34,431.87 C274.72,447.92 274.23,449.83 276.20,451.80 C277.91,453.51 328.09,453.51 329.80,451.80 ZM 1087.80 451.80 C1088.46,451.14 1089.00,449.82 1089.00,448.87 C1089.00,446.96 1065.44,391.26 1063.79,389.25 C1062.27,387.42 1059.22,387.73 1058.09,389.83 C1054.41,396.71 1033.96,447.69 1034.20,449.38 C1034.63,452.42 1037.42,452.75 1063.55,452.88 C1080.28,452.97 1086.93,452.67 1087.80,451.80 Z" fill="rgba(189,86,31,1)"/>
<path d="M 219.02 516.02 C214.46,511.14 214.80,509.07 223.48,489.00 C225.50,484.33 229.09,475.77 231.46,470.00 C233.83,464.23 236.98,456.80 238.47,453.50 C239.96,450.20 242.46,444.04 244.04,439.82 C245.61,435.59 247.35,431.31 247.90,430.32 C249.13,428.08 257.00,409.22 257.00,408.50 C257.00,407.82 264.93,389.35 268.81,381.00 C272.38,373.29 280.40,354.12 287.72,335.75 C291.20,327.00 292.77,325.67 300.15,325.20 C305.29,324.88 307.49,325.21 310.58,326.80 C314.07,328.59 314.93,329.83 318.38,338.15 C324.30,352.41 330.95,367.94 333.52,373.50 C338.21,383.67 343.00,394.77 343.00,395.49 C343.00,395.89 344.52,399.43 346.38,403.36 C351.33,413.82 355.99,424.50 356.98,427.70 C357.90,430.63 364.96,447.34 367.47,452.50 C368.28,454.15 369.82,457.81 370.90,460.63 C371.99,463.44 373.75,467.72 374.83,470.13 C375.90,472.53 378.45,478.33 380.49,483.00 C382.52,487.67 385.30,493.92 386.65,496.89 C389.72,503.60 391.15,510.85 389.88,513.22 C386.98,518.64 374.45,520.53 366.84,516.69 C362.21,514.35 360.48,511.65 355.54,499.00 C352.08,490.14 349.48,486.13 346.43,484.98 C342.36,483.43 262.11,483.72 259.00,485.29 C255.97,486.83 253.96,490.59 246.49,508.68 C245.54,510.97 243.47,514.09 241.89,515.61 C239.32,518.07 238.12,518.40 230.53,518.80 L 222.03 519.25 L 219.02 516.02 ZM 331.00 453.00 C333.58,450.42 333.49,447.76 330.59,441.00 C322.95,423.19 318.06,412.14 316.67,409.50 C315.80,407.85 313.44,402.45 311.41,397.50 C306.91,386.48 306.53,385.99 302.63,386.03 C298.42,386.07 296.46,387.77 294.46,393.06 C292.87,397.28 290.50,402.99 277.57,433.76 C274.51,441.05 272.00,447.71 272.00,448.55 C272.00,449.40 273.10,451.20 274.45,452.55 L 276.91 455.00 L 302.95 455.00 C327.67,455.00 329.10,454.90 331.00,453.00 ZM 423.31 517.99 C422.10,517.50 420.33,515.91 419.37,514.45 C417.75,511.97 417.63,505.64 417.57,422.64 C417.50,328.11 417.48,328.42 422.07,325.96 C424.73,324.54 429.26,324.79 431.70,326.50 C432.87,327.32 434.86,329.69 436.10,331.75 C437.35,333.81 439.52,336.92 440.93,338.67 C442.35,340.41 444.82,344.01 446.44,346.67 C448.06,349.32 450.83,353.30 452.60,355.50 C454.36,357.70 458.75,364.00 462.35,369.50 C465.95,375.00 469.94,380.83 471.20,382.45 C472.47,384.07 475.30,388.17 477.50,391.56 C479.70,394.95 482.72,399.47 484.22,401.61 C487.83,406.77 496.33,419.07 502.42,427.94 C507.38,435.17 512.16,440.00 514.34,440.00 C518.39,440.00 522.47,435.57 533.22,419.50 C553.84,388.68 567.89,368.33 569.46,367.04 C570.31,366.33 571.00,365.17 571.00,364.45 C571.00,363.74 572.06,361.88 573.35,360.33 C574.64,358.77 576.33,356.33 577.10,354.89 C581.85,346.04 595.92,327.36 598.83,326.03 C602.26,324.47 608.58,326.44 610.75,329.74 C612.37,332.21 612.54,338.77 613.00,418.96 C613.28,466.55 613.20,507.29 612.84,509.47 C612.41,512.12 611.15,514.37 609.08,516.22 C606.23,518.77 605.30,519.00 598.00,519.00 C590.61,519.00 589.79,518.79 586.77,516.08 L 583.50 513.17 L 583.00 465.94 L 582.50 418.71 L 579.84 416.73 C575.62,413.58 572.87,414.99 566.82,423.39 C559.84,433.08 550.38,446.78 546.00,453.53 C535.20,470.18 522.47,488.26 520.65,489.53 C519.50,490.34 517.23,491.00 515.62,491.00 C512.06,491.00 505.29,484.07 498.77,473.74 C496.42,470.01 491.38,462.59 487.56,457.23 C483.75,451.88 478.31,444.12 475.48,440.00 C458.93,415.87 459.12,416.08 454.40,416.03 C447.84,415.96 448.00,414.70 448.00,465.61 C448.00,515.98 448.19,514.30 441.99,517.51 C438.81,519.15 426.96,519.46 423.31,517.99 ZM 657.75 517.92 C652.89,515.09 653.00,517.22 653.00,422.00 C653.00,325.23 652.80,328.78 658.47,326.19 C661.91,324.63 729.02,324.53 737.57,326.07 C752.23,328.73 767.90,340.42 774.30,353.50 C778.74,362.54 779.46,366.17 779.47,379.50 C779.48,391.76 777.38,399.57 771.83,407.87 C766.75,415.46 766.93,416.90 773.83,424.32 C781.67,432.75 785.49,440.43 787.62,452.05 C789.05,459.88 789.13,462.48 788.13,468.88 C786.34,480.42 780.75,492.76 773.29,501.63 C770.53,504.92 760.11,511.59 754.00,513.97 C743.16,518.21 733.94,518.99 695.50,518.97 C672.91,518.95 658.85,518.56 657.75,517.92 ZM 733.36 488.93 C745.88,487.55 754.39,481.01 757.61,470.31 C760.87,459.48 758.48,449.66 750.75,442.13 C742.52,434.12 740.39,433.62 713.00,433.38 C700.08,433.26 688.67,433.40 687.66,433.68 C683.81,434.75 683.00,439.72 683.01,462.22 C683.03,485.70 683.51,488.04 688.53,489.14 C692.87,490.09 724.20,489.95 733.36,488.93 ZM 737.92 401.95 C743.49,398.88 744.73,397.64 747.28,392.61 C749.75,387.74 750.22,385.62 750.22,379.42 C750.22,368.24 746.10,361.24 736.50,356.15 C731.60,353.56 731.05,353.49 709.94,353.18 C689.69,352.88 688.24,352.98 685.94,354.85 L 683.50 356.83 L 683.50 379.00 L 683.50 401.17 L 686.42 403.68 L 689.34 406.19 L 710.42 405.85 L 731.50 405.50 L 737.92 401.95 ZM 824.38 515.71 L 820.50 512.15 L 820.35 423.13 C820.21,342.22 820.35,333.80 821.85,330.82 C824.73,325.07 825.04,325.03 865.50,325.04 C909.56,325.05 910.51,325.19 927.63,334.65 C931.79,336.94 942.00,347.14 942.00,349.00 C942.00,349.61 943.28,351.78 944.85,353.81 C952.97,364.30 955.35,388.38 949.96,405.48 C946.13,417.67 935.03,431.91 925.50,436.88 C916.58,441.53 913.52,444.35 913.19,448.25 C912.87,452.15 914.12,454.11 933.55,480.08 C937.43,485.26 941.25,490.46 942.05,491.62 C942.85,492.79 945.41,496.48 947.75,499.82 C953.09,507.44 953.38,511.31 948.93,515.56 C946.05,518.32 945.37,518.50 937.68,518.50 C927.57,518.50 924.13,516.66 917.85,507.89 C915.46,504.55 912.15,500.08 910.50,497.97 C908.85,495.85 906.38,492.49 905.00,490.50 C903.62,488.50 900.43,484.31 897.91,481.19 C895.38,478.06 891.78,473.41 889.91,470.86 C882.39,460.61 875.15,451.41 873.31,449.76 C870.54,447.28 861.60,445.76 857.11,447.00 C850.07,448.95 850.50,446.74 850.46,480.99 L 850.41 512.05 L 847.35 515.11 C844.58,517.88 843.53,518.22 836.28,518.72 L 828.26 519.27 L 824.38 515.71 ZM 904.17 415.53 C909.80,413.53 917.50,405.75 921.05,398.50 C923.10,394.31 923.48,392.05 923.46,384.50 C923.44,376.76 923.06,374.80 920.81,370.50 C917.17,363.57 913.42,359.74 907.00,356.38 L 901.50 353.50 L 877.79 353.50 C856.36,353.50 853.90,353.67 852.29,355.29 C850.69,356.88 850.46,359.63 850.14,380.61 C849.70,409.81 850.18,414.46 853.82,416.54 C857.71,418.76 897.31,417.96 904.17,415.53 ZM 982.35 517.37 C976.37,515.25 974.68,511.45 976.69,504.68 C977.51,501.92 979.04,498.06 980.09,496.09 C981.14,494.13 982.00,491.95 982.00,491.25 C982.00,490.54 983.35,487.43 985.00,484.34 C986.65,481.25 988.00,478.14 988.00,477.43 C988.00,476.72 989.27,473.30 990.83,469.82 C992.39,466.34 994.46,461.48 995.43,459.00 C996.40,456.52 998.47,451.58 1000.02,448.00 C1004.56,437.56 1014.69,412.72 1015.52,410.00 C1015.94,408.62 1020.44,397.83 1025.52,386.00 C1030.60,374.17 1035.08,363.38 1035.46,362.00 C1035.85,360.62 1037.21,357.25 1038.49,354.50 C1039.78,351.75 1041.73,347.48 1042.83,345.00 C1051.22,326.23 1050.56,327.30 1054.53,325.99 C1056.77,325.25 1060.55,324.98 1063.89,325.32 C1071.03,326.04 1073.09,328.37 1078.39,341.71 C1082.13,351.14 1084.84,357.52 1092.62,375.25 C1099.36,390.60 1102.93,398.98 1109.14,414.00 C1114.86,427.83 1115.01,428.16 1117.05,432.12 C1118.08,434.12 1120.79,440.40 1123.09,446.09 C1125.38,451.78 1127.61,457.13 1128.04,457.97 C1128.47,458.81 1131.74,466.25 1135.31,474.50 C1138.88,482.75 1143.26,492.88 1145.05,497.00 C1146.84,501.12 1148.50,506.30 1148.74,508.50 C1149.12,511.95 1148.76,512.90 1146.15,515.38 C1143.41,517.98 1142.36,518.29 1135.11,518.56 C1128.26,518.83 1126.73,518.57 1124.49,516.81 C1120.96,514.03 1117.32,508.09 1114.38,500.29 C1111.38,492.30 1108.09,485.74 1106.62,484.77 C1106.00,484.36 1086.06,484.02 1062.31,484.02 L 1019.11 484.00 L 1016.60 486.25 C1015.21,487.49 1012.68,492.10 1010.97,496.50 C1005.28,511.13 1003.05,514.93 998.90,517.05 C994.42,519.33 988.22,519.45 982.35,517.37 ZM 1089.93 452.37 C1092.73,448.81 1092.56,447.24 1088.59,439.30 C1086.71,435.56 1082.65,426.28 1079.56,418.69 C1072.37,401.02 1067.27,389.97 1065.27,387.75 C1063.21,385.47 1058.75,385.51 1056.64,387.84 C1055.73,388.86 1053.91,392.34 1052.60,395.59 C1048.32,406.24 1039.00,428.44 1037.52,431.50 C1032.49,441.93 1030.29,449.56 1031.73,451.59 C1033.86,454.59 1037.02,454.94 1062.18,454.97 L 1087.85 455.00 L 1089.93 452.37 Z" fill="rgba(234,86,4,1)"/>
</g>
</svg>