<svg xmlns="http://www.w3.org/2000/svg" width="1024" height="1024" viewBox="0 0 1024 1024">
<g>
<path d="M 375.22 546.00 C370.34,555.82 368.31,557.55 364.89,554.79 C363.20,553.42 353.12,540.28 349.07,534.16 C338.37,518.00 325.97,489.97 322.44,474.00 C321.66,470.42 320.75,466.83 320.43,466.00 C320.11,465.17 319.12,460.45 318.22,455.50 C315.56,440.70 316.05,390.59 318.92,385.12 C319.38,384.23 320.10,381.48 320.49,379.00 C321.31,373.96 328.18,352.90 331.24,346.04 C332.34,343.59 333.32,341.05 333.41,340.40 C333.51,339.74 334.09,338.59 334.70,337.85 C335.32,337.11 336.61,334.48 337.56,332.00 C338.52,329.52 340.06,326.60 340.98,325.50 C341.90,324.40 345.01,319.73 347.89,315.12 C362.05,292.45 381.71,272.56 406.00,256.31 C429.88,240.33 458.79,230.29 489.86,227.17 C501.74,225.98 504.54,226.65 504.38,230.63 C504.25,233.62 489.55,271.54 483.39,284.77 C481.52,288.77 480.00,292.44 480.00,292.92 C480.00,293.41 478.03,298.68 475.62,304.65 C452.96,360.70 446.98,375.39 439.03,394.50 C425.63,426.68 420.17,439.70 416.99,447.00 C415.43,450.58 411.22,460.70 407.63,469.50 C404.04,478.30 400.18,487.28 399.05,489.46 C397.92,491.64 397.00,493.95 397.00,494.59 C397.00,495.23 395.49,499.07 393.64,503.13 C391.79,507.18 387.95,516.35 385.11,523.50 C382.27,530.65 377.82,540.78 375.22,546.00 ZM 540.50 620.44 C529.98,621.98 507.94,623.10 502.00,622.40 C462.58,617.76 452.14,614.88 422.50,600.43 C412.72,595.66 408.97,593.30 397.52,584.73 C391.28,580.05 387.00,575.70 387.00,574.03 C387.00,573.08 389.02,569.21 391.50,565.45 C393.98,561.68 396.01,558.12 396.02,557.55 C396.03,556.97 397.09,555.50 398.37,554.29 C399.66,553.07 402.46,549.48 404.60,546.31 C409.12,539.62 432.53,516.00 434.64,516.00 C435.42,516.00 436.33,515.31 436.65,514.46 C437.36,512.62 460.99,499.00 463.48,499.00 C464.04,499.00 467.20,497.73 470.50,496.17 C477.61,492.82 483.19,491.34 496.00,489.39 C516.15,486.34 526.19,485.95 584.13,485.98 C632.40,486.01 646.02,485.72 655.63,484.47 C667.57,482.91 678.64,480.49 680.50,479.04 C681.05,478.61 683.30,477.69 685.50,476.98 C687.70,476.28 691.07,474.87 692.99,473.85 C697.25,471.58 699.87,471.49 700.67,473.58 C701.41,475.50 695.95,492.59 691.10,503.50 C681.15,525.93 659.54,557.00 653.90,557.00 C650.60,557.00 646.71,549.72 635.20,522.00 C633.03,516.78 630.64,510.75 629.88,508.61 C627.56,502.07 626.94,501.93 602.50,502.23 C583.58,502.46 580.58,502.72 579.68,504.14 C578.37,506.22 584.49,519.32 592.62,531.85 C600.38,543.82 615.13,558.19 625.50,563.91 C637.38,570.45 638.00,570.89 638.00,572.81 C638.00,576.45 616.08,592.50 600.96,599.92 C596.31,602.21 590.86,604.94 588.86,606.01 C578.89,611.29 555.64,618.23 540.50,620.44 ZM 649.00 469.93 C634.15,471.30 620.41,471.20 616.04,469.69 C613.06,468.67 612.28,467.67 610.39,462.50 C606.14,450.86 604.81,447.42 601.52,439.50 C599.69,435.10 594.74,422.73 590.52,412.00 C586.30,401.27 580.85,387.55 578.42,381.50 C575.98,375.45 573.99,369.99 573.99,369.37 C574.00,368.75 573.38,367.73 572.62,367.10 C571.86,366.47 570.96,364.54 570.61,362.81 C570.26,361.07 567.45,353.32 564.36,345.58 C561.27,337.84 556.82,326.50 554.48,320.40 C552.14,314.29 549.64,308.21 548.91,306.90 C548.19,305.58 547.47,303.72 547.31,302.76 C547.15,301.81 545.95,298.80 544.64,296.09 C543.33,293.38 541.94,289.88 541.56,288.33 C541.17,286.77 539.81,283.02 538.52,280.00 C534.31,270.11 525.00,246.15 525.00,245.18 C525.00,244.67 524.31,243.68 523.48,242.98 C522.64,242.28 522.16,241.50 522.42,241.24 C522.68,240.99 522.21,239.06 521.37,236.97 C520.54,234.88 520.00,231.89 520.18,230.33 L 520.50 227.50 L 531.50 227.62 C568.97,228.04 615.51,249.14 647.70,280.32 C660.91,293.12 667.22,300.65 676.75,315.00 C697.40,346.11 708.77,386.54 705.96,418.87 C704.54,435.31 699.79,446.25 690.19,455.22 C680.51,464.28 670.13,467.99 649.00,469.93 ZM 417.94 509.19 C415.43,511.28 412.73,512.96 411.94,512.92 C409.40,512.78 408.00,511.87 408.00,510.35 C408.00,508.60 414.13,493.22 421.50,476.50 C426.95,464.12 435.09,444.30 435.45,442.51 C435.57,441.96 436.41,439.81 437.33,437.75 C440.92,429.69 442.00,426.88 442.00,425.59 C442.00,424.85 442.65,423.70 443.45,423.04 C444.25,422.38 445.42,420.19 446.05,418.17 C446.68,416.15 448.05,412.67 449.10,410.43 C450.14,408.20 451.00,405.90 451.00,405.32 C451.00,404.74 452.99,400.05 455.43,394.88 C459.85,385.52 460.81,383.17 465.92,369.00 C467.41,364.87 469.35,360.37 470.23,359.00 C471.11,357.62 473.26,352.67 475.00,348.00 C480.67,332.77 481.17,331.51 481.99,330.50 C483.23,328.97 489.85,312.18 489.39,311.72 C488.76,311.10 492.28,308.30 494.50,307.66 C498.61,306.47 498.84,306.90 510.00,336.00 C516.19,352.15 540.73,414.00 545.71,426.00 C547.65,430.67 550.49,437.42 552.01,441.00 C553.53,444.58 555.11,448.62 555.52,450.00 C555.92,451.38 557.06,454.10 558.04,456.05 C560.71,461.34 561.36,466.16 559.71,468.40 C558.42,470.14 556.21,470.37 533.90,471.09 C500.10,472.17 489.34,473.75 470.00,480.48 C447.60,488.28 433.94,495.81 417.94,509.19 ZM 556.00 798.86 C553.37,799.93 546.41,800.35 528.00,800.55 C500.06,800.85 498.14,800.67 495.77,797.68 C494.18,795.67 494.04,790.96 494.02,738.25 C494.00,681.89 494.03,680.97 496.05,678.95 C498.02,676.98 499.02,676.92 524.80,677.20 C550.99,677.49 551.59,677.55 556.50,680.00 C563.05,683.27 570.59,690.84 573.23,696.77 C577.68,706.76 576.27,723.96 570.43,730.91 C569.09,732.49 568.00,734.12 568.00,734.53 C568.00,734.94 569.84,737.27 572.09,739.71 C578.79,746.99 581.49,753.95 581.49,764.00 C581.50,771.11 581.07,773.42 578.85,778.15 C574.71,786.99 566.18,794.72 556.00,798.86 ZM 470.75 797.45 C467.09,801.62 456.68,801.84 452.36,797.84 C450.27,795.91 450.21,795.13 450.17,769.18 C450.14,754.50 450.09,741.26 450.06,739.75 C450.01,737.58 449.53,737.00 447.75,737.01 C446.10,737.02 444.44,738.65 441.50,743.17 C439.30,746.55 437.33,749.81 437.11,750.41 C436.90,751.01 435.29,753.53 433.54,756.00 C431.79,758.47 427.79,764.61 424.67,769.62 C417.91,780.46 414.60,784.00 411.23,784.00 C408.17,784.00 402.00,780.33 402.00,778.50 C402.00,777.77 400.65,775.90 399.00,774.34 C397.35,772.78 396.00,771.06 396.00,770.52 C396.00,769.09 386.83,756.00 385.84,756.00 C385.38,756.00 385.00,755.33 385.00,754.50 C385.00,753.67 384.14,752.14 383.09,751.09 C382.03,750.03 379.56,746.66 377.60,743.59 C375.20,739.84 373.36,738.00 372.01,738.00 C370.04,738.00 370.00,738.61 370.00,766.83 L 370.00 795.65 L 367.69 797.83 C365.76,799.64 364.18,800.00 358.26,800.00 C357.39,800.00 356.59,800.03 355.86,800.06 C353.82,800.13 352.27,800.19 351.11,799.55 C347.42,797.54 347.51,788.61 347.87,751.48 C347.91,747.24 347.96,742.62 348.00,737.60 C348.48,681.88 348.57,679.79 350.44,678.42 C352.84,676.67 358.10,676.57 360.14,678.25 C361.91,679.70 365.96,685.46 383.48,711.50 C398.96,734.49 409.63,749.00 411.05,749.00 C411.63,749.00 412.75,747.44 413.55,745.54 C414.34,743.63 416.27,740.60 417.84,738.79 C421.24,734.85 430.80,720.71 431.72,718.25 C432.08,717.29 433.87,714.37 435.69,711.76 C437.51,709.15 439.00,706.82 439.00,706.58 C439.00,706.33 441.48,702.84 444.50,698.82 C447.53,694.79 450.66,690.15 451.45,688.50 C452.25,686.85 454.93,683.30 457.41,680.62 C461.50,676.19 462.23,675.80 465.16,676.38 C466.95,676.74 469.44,678.00 470.70,679.19 L 473.00 681.35 L 473.00 794.89 ZM 616.69 798.59 C614.52,800.46 612.84,800.97 609.19,800.86 C601.85,800.65 600.28,800.08 599.09,797.19 C598.30,795.30 598.05,777.45 598.24,737.11 L 598.50 679.72 L 601.00 678.02 C603.26,676.49 606.12,676.38 630.50,676.94 L 657.50 677.56 L 662.91 680.38 C669.95,684.04 677.14,691.51 680.60,698.73 C682.77,703.27 683.45,706.37 683.80,713.27 C684.35,724.11 683.00,729.37 677.45,738.00 C672.76,745.29 670.79,747.23 663.25,752.01 C660.36,753.84 658.00,755.69 658.00,756.12 C658.00,757.41 664.17,765.91 678.47,784.34 C683.53,790.86 683.81,792.16 681.10,796.61 C679.63,799.01 678.26,799.86 675.01,800.38 C666.83,801.69 662.40,799.69 658.13,792.74 C656.86,790.67 654.96,788.51 653.91,787.95 C652.86,787.39 652.00,786.45 652.00,785.86 C652.00,784.75 650.10,782.31 641.97,773.00 C639.33,769.97 635.67,765.25 633.84,762.50 C630.57,757.61 630.39,757.50 625.50,757.50 L 620.50 757.50 L 619.50 796.18 ZM 243.21 798.23 C241.12,800.32 236.97,800.98 231.10,800.13 C227.51,799.62 226.30,798.86 224.45,796.00 C222.50,792.98 222.37,792.22 223.49,790.44 C224.81,788.36 230.31,775.45 241.15,749.00 C244.41,741.03 247.50,733.60 248.00,732.50 C248.50,731.40 249.66,728.70 250.58,726.50 C251.50,724.30 253.77,718.92 255.62,714.54 C257.48,710.16 259.00,706.16 259.00,705.66 C259.00,705.16 260.31,701.99 261.90,698.62 C263.50,695.26 266.22,689.36 267.95,685.53 C269.69,681.69 271.64,678.21 272.30,677.79 C272.96,677.37 276.01,677.02 279.08,677.02 C283.59,677.00 285.04,677.43 286.72,679.25 C287.85,680.49 295.19,696.80 303.03,715.50 C310.86,734.20 319.18,754.00 321.51,759.50 C328.82,776.76 333.86,789.40 334.52,792.11 C334.98,794.05 334.51,795.46 332.66,797.61 C330.35,800.29 329.67,800.49 323.41,800.40 C317.21,800.31 316.46,800.07 314.32,797.40 C313.04,795.81 311.06,792.03 309.93,789.00 C308.45,785.05 307.85,782.64 306.34,781.19 C304.01,778.95 299.49,778.97 286.14,779.04 C284.34,779.05 282.37,779.06 280.23,779.07 C266.63,779.11 254.68,779.46 253.68,779.86 C252.65,780.26 250.33,784.08 248.39,788.54 C246.49,792.92 244.16,797.28 243.21,798.23 ZM 712.60 798.53 C711.64,799.84 709.56,800.48 705.17,800.79 C699.41,801.21 698.91,801.06 695.93,798.09 C693.36,795.51 692.88,794.36 693.28,791.72 C693.91,787.56 697.99,775.94 699.50,774.00 C700.15,773.17 701.27,770.92 702.01,769.00 C702.74,767.08 705.33,761.00 707.75,755.50 C712.51,744.68 727.78,707.96 734.57,691.00 C739.60,678.44 742.69,675.45 749.47,676.56 C756.45,677.70 757.02,678.59 767.68,705.00 C770.68,712.42 773.95,720.30 774.95,722.50 C775.95,724.70 780.82,736.17 785.78,748.00 C790.74,759.83 796.64,773.72 798.88,778.87 C804.24,791.19 804.70,793.84 802.07,797.19 C799.69,800.21 794.69,801.32 788.50,800.21 C784.61,799.52 784.36,799.23 779.50,789.50 L 774.50 779.50 L 748.39 779.23 C728.26,779.03 722.04,779.26 721.25,780.23 C720.69,780.93 718.81,784.92 717.08,789.10 C715.35,793.28 713.34,797.53 712.60,798.53 ZM 620.04 734.07 C620.98,735.82 622.24,736.00 633.82,736.00 C647.40,736.00 651.20,734.98 656.60,729.90 C659.22,727.45 662.00,720.09 662.00,715.64 C662.00,711.05 658.30,704.41 653.74,700.80 C649.65,697.56 649.60,697.55 636.28,697.16 C635.42,697.13 634.60,697.10 633.82,697.08 C626.69,696.85 622.98,696.73 621.06,698.53 C618.97,700.47 618.98,704.67 619.00,713.43 C619.00,714.32 619.00,715.24 619.00,716.22 C619.00,725.28 619.45,732.96 620.04,734.07 ZM 520.00 778.75 C521.44,779.50 524.19,779.85 526.50,779.56 C528.70,779.29 534.55,778.98 539.50,778.87 C549.27,778.65 551.07,778.09 555.23,773.92 C560.34,768.81 561.34,762.54 558.06,756.11 C554.46,749.07 552.67,748.50 534.00,748.50 L 517.50 748.50 L 517.50 762.97 C517.50,777.39 517.51,777.45 520.00,778.75 ZM 517.75 725.97 C518.82,726.63 524.42,726.94 532.19,726.77 C544.68,726.50 544.92,726.46 547.92,723.58 C549.59,721.97 551.71,718.71 552.62,716.33 C554.16,712.30 554.16,711.70 552.62,707.66 C550.85,703.04 548.23,700.27 543.70,698.25 C540.29,696.72 520.69,696.56 517.93,698.04 C516.18,698.98 516.00,700.24 516.00,711.99 C516.00,723.21 516.23,725.04 517.75,725.97 ZM 263.95 756.45 C265.09,757.81 267.48,758.01 279.89,757.78 L 294.50 757.50 L 294.16 753.09 C293.98,750.67 292.12,745.04 290.03,740.59 C287.94,736.14 284.98,729.24 283.46,725.25 C279.88,715.90 278.24,715.76 274.81,724.50 C272.77,729.71 265.15,748.73 263.73,752.17 C262.88,754.23 262.93,755.21 263.95,756.45 ZM 732.62 756.46 C733.11,757.73 735.37,758.00 745.48,758.00 C765.18,758.00 766.69,757.14 762.45,748.33 C761.17,745.67 758.30,738.82 756.08,733.10 C751.71,721.87 749.42,717.69 747.91,718.20 C747.39,718.37 744.44,724.59 741.37,732.01 C732.51,753.43 732.00,754.84 732.62,756.46 Z" fill="rgb(232,89,11)"/>
<path d="M 0.00 0.00 L 1024.00 0.00 L 1024.00 1024.00 L 0.00 1024.00 ZM 375.22 546.00 C377.82,540.78 382.27,530.65 385.11,523.50 C386.23,520.68 387.51,517.55 388.76,514.54 C388.58,515.47 388.69,516.00 389.08,516.00 C390.38,516.00 391.26,513.57 390.80,511.31 C390.69,510.82 390.57,510.56 390.42,510.55 C391.70,507.52 392.85,504.86 393.64,503.13 C395.49,499.07 397.00,495.23 397.00,494.59 C397.00,494.20 397.33,493.23 397.84,492.03 L 397.01 494.50 L 398.98 492.00 C401.14,489.27 401.49,488.00 400.10,488.00 C399.96,488.00 399.79,488.11 399.61,488.31 C401.16,484.99 404.50,477.18 407.63,469.50 C409.83,464.10 412.27,458.21 414.18,453.63 C414.42,453.71 414.92,453.48 415.50,453.00 C416.33,452.32 416.98,450.80 416.96,449.63 C416.94,448.07 416.88,447.74 416.23,448.76 C416.53,448.07 416.78,447.48 416.99,447.00 C420.17,439.70 425.63,426.68 439.03,394.50 C446.98,375.39 452.96,360.70 475.62,304.65 C478.03,298.68 480.00,293.41 480.00,292.92 C480.00,292.88 480.01,292.81 480.04,292.72 C480.14,292.88 480.49,293.00 480.89,293.00 C482.03,293.00 483.01,290.47 482.96,287.67 C482.94,286.58 482.81,286.29 482.41,286.90 C482.72,286.21 483.05,285.50 483.39,284.77 C489.55,271.54 504.25,233.62 504.38,230.63 C504.54,226.65 501.74,225.98 489.86,227.17 C458.79,230.29 429.88,240.33 406.00,256.31 C381.71,272.56 362.05,292.45 347.89,315.12 C345.01,319.73 341.90,324.40 340.98,325.50 C340.06,326.60 338.52,329.52 337.56,332.00 C336.61,334.48 335.32,337.11 334.70,337.85 C334.09,338.59 333.51,339.74 333.41,340.40 C333.32,341.05 332.34,343.59 331.24,346.04 C328.18,352.90 321.31,373.96 320.49,379.00 C320.10,381.48 319.38,384.23 318.92,385.12 C316.05,390.59 315.56,440.70 318.22,455.50 C319.12,460.45 320.11,465.17 320.43,466.00 C320.75,466.83 321.66,470.42 322.44,474.00 C325.97,489.97 338.37,518.00 349.07,534.16 C353.12,540.28 363.20,553.42 364.89,554.79 C368.31,557.55 370.34,555.82 375.22,546.00 ZM 540.50 620.44 C555.64,618.23 578.89,611.29 588.86,606.01 C588.94,605.96 589.02,605.92 589.12,605.87 C589.77,606.49 593.02,605.68 593.99,604.51 C594.86,603.47 594.87,603.23 593.41,603.68 C595.71,602.52 598.45,601.16 600.96,599.92 C616.08,592.50 638.00,576.45 638.00,572.81 C638.00,570.89 637.38,570.45 625.50,563.91 C615.13,558.19 600.38,543.82 592.62,531.85 C587.88,524.56 583.83,517.07 581.53,511.67 C581.71,511.88 581.87,512.00 581.99,512.00 C582.45,512.00 582.34,510.72 581.75,509.15 C579.53,503.27 579.70,503.22 603.50,503.54 C622.42,503.79 625.39,504.05 627.08,505.57 C628.06,506.46 628.87,506.77 628.99,506.33 C629.29,506.99 629.57,507.74 629.88,508.61 C630.64,510.75 633.03,516.78 635.20,522.00 C646.71,549.72 650.60,557.00 653.90,557.00 C659.54,557.00 681.15,525.93 691.10,503.50 C695.95,492.59 701.41,475.50 700.67,473.58 C699.87,471.49 697.25,471.58 692.99,473.85 C691.07,474.87 687.70,476.28 685.50,476.98 C683.30,477.69 681.05,478.61 680.50,479.04 C679.86,479.54 678.14,480.15 675.67,480.80 C676.29,480.50 676.60,480.16 676.42,479.88 C675.61,478.56 672.75,478.88 670.56,480.53 C668.93,481.77 668.96,482.16 671.21,481.85 C666.81,482.78 661.32,483.72 655.63,484.47 C655.04,484.54 654.43,484.62 653.80,484.69 C653.69,484.56 653.18,484.34 652.31,483.99 C649.69,482.94 643.00,483.85 643.00,485.26 C643.00,485.33 643.02,485.39 643.05,485.45 C632.56,485.88 615.81,486.00 584.13,485.98 C526.19,485.95 516.15,486.34 496.00,489.39 C483.19,491.34 477.61,492.82 470.50,496.17 C467.20,497.73 464.04,499.00 463.48,499.00 C460.99,499.00 437.36,512.62 436.65,514.46 C436.33,515.31 435.42,516.00 434.64,516.00 C432.53,516.00 409.12,539.62 404.60,546.31 C402.46,549.48 399.66,553.07 398.37,554.29 C397.09,555.50 396.03,556.97 396.02,557.55 C396.01,558.12 393.98,561.68 391.50,565.45 C389.02,569.21 387.00,573.08 387.00,574.03 C387.00,575.70 391.28,580.05 397.52,584.73 C408.97,593.30 412.72,595.66 422.50,600.43 C445.29,611.54 456.72,615.81 478.71,619.30 C475.39,618.91 474.75,619.14 475.55,619.93 C476.07,620.45 478.30,621.05 480.50,621.27 C482.70,621.48 486.75,621.69 489.50,621.71 C493.86,621.75 493.47,621.59 486.50,620.46 L 486.14 620.40 C490.89,621.06 496.12,621.71 502.00,622.40 C507.94,623.10 529.98,621.98 540.50,620.44 ZM 649.00 469.93 C670.13,467.99 680.51,464.28 690.19,455.22 C699.79,446.25 704.54,435.31 705.96,418.87 C708.77,386.54 697.40,346.11 676.75,315.00 C667.22,300.65 660.91,293.12 647.70,280.32 C615.51,249.14 568.97,228.04 531.50,227.62 L 520.50 227.50 L 520.18 230.33 C520.00,231.89 520.54,234.88 521.37,236.97 C522.21,239.06 522.68,240.99 522.42,241.24 C522.16,241.50 522.64,242.28 523.48,242.98 C524.31,243.68 525.00,244.67 525.00,245.18 C525.00,246.15 534.31,270.11 538.52,280.00 C539.81,283.02 541.17,286.77 541.56,288.33 C541.94,289.88 543.33,293.38 544.64,296.09 C545.95,298.80 547.15,301.81 547.31,302.76 C547.47,303.72 548.19,305.58 548.91,306.90 C549.64,308.21 552.14,314.29 554.48,320.40 C556.82,326.50 561.27,337.84 564.36,345.58 C567.45,353.32 570.26,361.07 570.61,362.81 C570.96,364.54 571.86,366.47 572.62,367.10 C573.38,367.73 574.00,368.75 573.99,369.37 C573.99,369.99 575.98,375.45 578.42,381.50 C580.85,387.55 586.30,401.27 590.52,412.00 C594.74,422.73 599.69,435.10 601.52,439.50 C604.81,447.42 606.14,450.86 610.39,462.50 C612.28,467.67 613.06,468.67 616.04,469.69 C620.41,471.20 634.15,471.30 649.00,469.93 ZM 417.94 509.19 C433.94,495.81 447.60,488.28 470.00,480.48 C473.80,479.16 477.27,478.04 480.65,477.08 C479.17,477.61 479.15,477.87 480.50,477.91 C482.15,477.96 485.75,477.12 488.50,476.05 C490.66,475.20 491.92,474.64 492.29,474.36 C502.54,472.51 514.37,471.71 533.90,471.09 C556.21,470.37 558.42,470.14 559.71,468.40 C561.36,466.16 560.71,461.34 558.04,456.05 C557.06,454.10 555.92,451.38 555.52,450.00 C555.11,448.62 553.53,444.58 552.01,441.00 C550.49,437.42 547.65,430.67 545.71,426.00 C540.73,414.00 516.19,352.15 510.00,336.00 C498.84,306.90 498.61,306.47 494.50,307.66 C492.28,308.30 488.76,311.10 489.39,311.72 C489.85,312.18 483.23,328.97 481.99,330.50 C481.17,331.51 480.67,332.77 475.00,348.00 C473.26,352.67 471.11,357.62 470.23,359.00 C469.35,360.37 467.41,364.87 465.92,369.00 C460.81,383.17 459.85,385.52 455.43,394.88 C452.99,400.05 451.00,404.74 451.00,405.32 C451.00,405.90 450.14,408.20 449.10,410.43 C448.05,412.67 446.68,416.15 446.05,418.17 C445.42,420.19 444.25,422.38 443.45,423.04 C442.65,423.70 442.00,424.85 442.00,425.59 C442.00,426.88 440.92,429.69 437.33,437.75 C436.41,439.81 435.57,441.96 435.45,442.51 C435.09,444.30 426.95,464.12 421.50,476.50 C414.13,493.22 408.00,508.60 408.00,510.35 C408.00,511.87 409.40,512.78 411.94,512.92 C412.73,512.96 415.43,511.28 417.94,509.19 ZM 556.00 798.86 C557.87,798.10 559.68,797.22 561.42,796.24 C561.16,796.55 561.00,796.84 561.00,797.07 C561.00,797.71 561.71,797.69 563.00,797.00 C564.10,796.41 565.00,795.48 565.00,794.93 C565.00,794.54 564.74,794.40 564.25,794.49 C570.69,790.21 575.89,784.47 578.85,778.15 C581.07,773.42 581.50,771.11 581.49,764.00 C581.49,753.95 578.79,746.99 572.09,739.71 C571.14,738.69 570.27,737.68 569.58,736.83 C569.84,736.55 570.00,735.69 570.00,734.30 C570.00,732.61 569.80,732.06 569.23,732.43 C569.58,731.94 569.99,731.42 570.43,730.91 C576.27,723.96 577.68,706.76 573.23,696.77 C570.59,690.84 563.05,683.27 556.50,680.00 C551.59,677.55 550.99,677.49 524.80,677.20 C499.02,676.92 498.02,676.98 496.05,678.95 C494.03,680.97 494.00,681.89 494.02,738.25 C494.04,790.96 494.18,795.67 495.77,797.68 C498.14,800.67 500.06,800.85 528.00,800.55 C546.41,800.35 553.37,799.93 556.00,798.86 ZM 470.75 797.45 L 473.00 794.89 L 473.00 681.35 L 470.70 679.19 C469.44,678.00 466.95,676.74 465.16,676.38 C462.23,675.80 461.50,676.19 457.41,680.62 C454.93,683.30 452.25,686.85 451.45,688.50 C450.66,690.15 447.53,694.79 444.50,698.82 C441.48,702.84 439.00,706.33 439.00,706.58 C439.00,706.82 437.51,709.15 435.69,711.76 C433.87,714.37 432.08,717.29 431.72,718.25 C430.80,720.71 421.24,734.85 417.84,738.79 C416.27,740.60 414.34,743.63 413.55,745.54 C412.75,747.44 411.63,749.00 411.05,749.00 C409.63,749.00 398.96,734.49 383.48,711.50 C365.96,685.46 361.91,679.70 360.14,678.25 C358.10,676.57 352.84,676.67 350.44,678.42 C348.57,679.79 348.48,681.88 348.00,737.60 C347.96,742.62 347.91,747.24 347.87,751.48 C347.51,788.61 347.42,797.54 351.11,799.55 C352.27,800.19 353.82,800.13 355.86,800.06 C356.59,800.03 357.39,800.00 358.26,800.00 C364.18,800.00 365.76,799.64 367.69,797.83 L 370.00 795.65 L 370.00 766.83 C370.00,754.49 370.01,747.43 370.18,743.39 C370.34,748.20 370.38,748.20 370.73,744.25 C371.16,739.49 371.52,739.28 375.03,741.72 L 377.50 743.44 L 376.97 742.63 C377.18,742.94 377.39,743.25 377.60,743.59 C379.56,746.66 382.03,750.03 383.09,751.09 C384.14,752.14 385.00,753.67 385.00,754.50 C385.00,755.33 385.38,756.00 385.84,756.00 C386.83,756.00 396.00,769.09 396.00,770.52 C396.00,771.06 397.35,772.78 399.00,774.34 C400.65,775.90 402.00,777.77 402.00,778.50 C402.00,780.33 408.17,784.00 411.23,784.00 C414.60,784.00 417.91,780.46 424.67,769.62 C427.79,764.61 431.79,758.47 433.54,756.00 C435.29,753.53 436.90,751.01 437.11,750.41 C437.26,750.00 438.25,748.32 439.56,746.21 C438.25,748.44 437.55,750.00 437.93,750.00 C438.44,750.00 439.12,749.21 439.44,748.25 C440.21,745.91 445.49,740.00 446.81,740.00 C447.39,740.00 448.15,740.90 448.50,742.00 C448.83,743.05 449.53,743.92 450.09,743.99 C450.12,749.33 450.15,758.90 450.17,769.18 C450.21,795.13 450.27,795.91 452.36,797.84 C456.68,801.84 467.09,801.62 470.75,797.45 ZM 616.69 798.59 L 619.50 796.18 L 620.42 760.66 C620.51,760.58 620.63,760.43 620.77,760.23 C621.25,759.53 623.64,758.55 626.07,758.05 L 628.36 757.59 C630.66,757.84 631.37,758.81 633.84,762.50 C635.67,765.25 639.33,769.97 641.97,773.00 C650.10,782.31 652.00,784.75 652.00,785.86 C652.00,786.45 652.86,787.39 653.91,787.95 C654.96,788.51 656.86,790.67 658.13,792.74 C662.40,799.69 666.83,801.69 675.01,800.38 C678.26,799.86 679.63,799.01 681.10,796.61 C683.81,792.16 683.53,790.86 678.47,784.34 C664.17,765.91 658.00,757.41 658.00,756.12 C658.00,755.69 660.36,753.84 663.25,752.01 C670.79,747.23 672.76,745.29 677.45,738.00 C677.54,737.85 677.63,737.71 677.72,737.57 C677.29,738.55 677.38,739.00 678.00,739.00 C679.21,739.00 680.53,736.20 679.70,735.37 C679.53,735.20 679.20,735.36 678.84,735.76 C683.23,728.38 684.30,723.14 683.80,713.27 C683.45,706.37 682.77,703.27 680.60,698.73 C677.14,691.51 669.95,684.04 662.91,680.38 L 657.50 677.56 L 630.50 676.94 C606.12,676.38 603.26,676.49 601.00,678.02 L 598.50 679.72 L 598.24 737.11 C598.05,777.45 598.30,795.30 599.09,797.19 C600.28,800.08 601.85,800.65 609.19,800.86 C612.84,800.97 614.52,800.46 616.69,798.59 ZM 243.21 798.23 C244.16,797.28 246.49,792.92 248.39,788.54 C249.56,785.85 250.87,783.40 251.95,781.78 C252.22,781.71 252.57,781.60 253.00,781.47 C256.92,780.20 274.14,779.75 289.73,780.51 L 303.96 781.21 L 306.17 784.78 C308.88,789.17 309.92,787.26 307.28,782.74 L 306.42 781.27 C307.87,782.73 308.47,785.11 309.93,789.00 C311.06,792.03 313.04,795.81 314.32,797.40 C316.46,800.07 317.21,800.31 323.41,800.40 C329.67,800.49 330.35,800.29 332.66,797.61 C334.51,795.46 334.98,794.05 334.52,792.11 C333.86,789.40 328.82,776.76 321.51,759.50 C319.18,754.00 310.86,734.20 303.03,715.50 C295.19,696.80 287.85,680.49 286.72,679.25 C285.04,677.43 283.59,677.00 279.08,677.02 C276.01,677.02 272.96,677.37 272.30,677.79 C271.64,678.21 269.69,681.69 267.95,685.53 C266.22,689.36 263.50,695.26 261.90,698.62 C260.31,701.99 259.00,705.16 259.00,705.66 C259.00,706.16 257.48,710.16 255.62,714.54 C253.77,718.92 251.50,724.30 250.58,726.50 C249.66,728.70 248.50,731.40 248.00,732.50 C247.50,733.60 244.41,741.03 241.15,749.00 C230.31,775.45 224.81,788.36 223.49,790.44 C222.37,792.22 222.50,792.98 224.45,796.00 C226.30,798.86 227.51,799.62 231.10,800.13 C236.97,800.98 241.12,800.32 243.21,798.23 ZM 712.60 798.53 C713.34,797.53 715.35,793.28 717.08,789.10 C717.90,787.13 718.74,785.20 719.47,783.64 C719.67,783.42 719.99,783.04 720.43,782.50 C722.00,780.60 723.30,780.50 746.79,780.50 C765.09,780.50 772.08,780.83 773.75,781.79 C774.87,782.42 775.61,782.51 775.87,782.25 L 779.50 789.50 C784.36,799.23 784.61,799.52 788.50,800.21 C794.69,801.32 799.69,800.21 802.07,797.19 C804.70,793.84 804.24,791.19 798.88,778.87 C796.64,773.72 790.74,759.83 785.78,748.00 C780.82,736.17 775.95,724.70 774.95,722.50 C774.70,721.94 774.30,721.03 773.80,719.84 C773.94,719.94 774.09,720.00 774.22,720.00 C774.77,720.00 774.94,719.29 774.61,718.42 C774.27,717.55 774.00,716.65 774.00,716.42 C774.00,716.19 773.59,716.00 773.09,716.00 C772.77,716.00 772.59,716.37 772.57,716.92 C771.16,713.54 769.38,709.20 767.68,705.00 C757.02,678.59 756.45,677.70 749.47,676.56 C743.30,675.55 740.19,677.94 735.89,687.84 C736.08,686.90 735.67,687.03 734.61,687.91 C733.84,688.55 732.98,689.95 732.70,691.03 C732.13,693.23 733.11,693.47 734.11,692.15 C727.11,709.57 712.40,744.92 707.75,755.50 C705.33,761.00 702.74,767.08 702.01,769.00 C701.27,770.92 700.15,773.17 699.50,774.00 C697.99,775.94 693.91,787.56 693.28,791.72 C692.88,794.36 693.36,795.51 695.93,798.09 C698.91,801.06 699.41,801.21 705.17,800.79 C709.56,800.48 711.64,799.84 712.60,798.53 ZM 630.50 698.00 C635.45,698.34 640.17,698.68 641.00,698.74 C641.83,698.81 643.40,698.47 644.50,698.00 C645.74,697.47 641.75,697.19 634.00,697.26 L 623.40 697.36 C625.60,696.82 628.89,696.92 633.82,697.08 C634.60,697.10 635.42,697.13 636.28,697.16 C649.60,697.55 649.65,697.56 653.74,700.80 C658.30,704.41 662.00,711.05 662.00,715.64 C662.00,720.09 659.22,727.45 656.60,729.90 C653.41,732.91 650.77,734.49 646.35,735.28 C644.89,735.02 639.65,734.87 633.67,734.93 L 621.20 735.06 L 620.62 730.28 C620.30,727.65 620.17,719.76 620.33,712.75 C620.48,706.48 620.31,701.23 619.95,700.19 C620.23,699.51 620.59,698.96 621.06,698.53 C621.56,698.06 622.19,697.72 622.97,697.48 ZM 520.00 778.75 C517.51,777.45 517.50,777.39 517.50,762.97 L 517.50 748.50 L 534.00 748.50 C542.12,748.50 547.04,748.61 550.31,749.31 C550.41,749.61 550.89,750.18 551.80,751.03 C553.00,752.14 554.67,754.39 555.52,756.03 C556.84,758.60 559.00,760.10 559.00,758.45 C559.00,758.38 558.99,758.30 558.98,758.22 C559.38,759.30 559.65,760.36 559.81,761.41 C559.66,761.15 559.41,761.37 559.00,762.00 C558.47,762.83 558.02,764.65 558.02,766.05 C558.01,767.45 557.46,769.14 556.80,769.80 C555.87,770.73 555.87,771.00 556.82,771.00 C557.45,771.00 558.10,770.28 558.65,769.17 C557.87,770.84 556.73,772.43 555.23,773.92 C551.07,778.09 549.27,778.65 539.50,778.87 C534.55,778.98 528.70,779.29 526.50,779.56 C524.19,779.85 521.44,779.50 520.00,778.75 ZM 521.04 726.58 C521.23,726.14 520.63,725.25 519.00,724.23 C517.20,723.11 517.00,721.90 517.00,712.11 L 517.00 711.49 C517.00,705.06 517.00,701.81 518.62,700.17 C520.29,698.50 523.67,698.52 530.51,698.56 L 531.16 698.57 C537.12,698.61 542.00,698.27 542.00,697.82 C542.00,697.81 542.00,697.80 542.00,697.79 C542.74,697.93 543.32,698.08 543.70,698.25 C548.23,700.27 550.85,703.04 552.62,707.66 C554.16,711.70 554.16,712.30 552.62,716.33 C551.71,718.71 549.59,721.97 547.92,723.58 C544.92,726.46 544.68,726.50 532.19,726.77 C527.51,726.87 523.63,726.80 521.04,726.58 ZM 732.62 756.46 C732.00,754.84 732.51,753.43 741.37,732.01 C744.44,724.59 747.39,718.37 747.91,718.20 C749.42,717.69 751.71,721.87 756.08,733.10 C758.30,738.82 761.17,745.67 762.45,748.33 C766.69,757.14 765.18,758.00 745.48,758.00 C735.37,758.00 733.11,757.73 732.62,756.46 ZM 263.95 756.45 C262.93,755.21 262.88,754.23 263.73,752.17 C264.87,749.41 270.03,736.55 273.06,728.92 C273.39,729.68 274.96,728.39 275.84,726.45 C277.22,723.42 277.26,723.00 276.16,723.00 C275.89,723.00 275.38,723.60 274.85,724.41 C275.32,723.22 275.75,722.19 276.17,721.33 C276.37,721.59 276.85,721.70 277.61,721.64 C278.50,721.56 279.74,722.40 280.36,723.50 C280.99,724.60 281.94,725.81 282.47,726.20 C283.61,727.01 283.93,726.85 283.41,725.14 L 283.46 725.25 C284.98,729.24 287.94,736.14 290.03,740.59 C292.12,745.04 293.98,750.67 294.16,753.09 L 294.50 757.50 L 279.89 757.78 C267.48,758.01 265.09,757.81 263.95,756.45 ZM 501.00 487.83 C501.00,488.24 504.36,488.15 508.46,487.63 C512.56,487.11 515.68,486.29 515.38,485.81 C515.09,485.33 513.30,485.18 511.42,485.47 C509.54,485.76 506.42,486.25 504.50,486.55 C502.58,486.85 501.00,487.42 501.00,487.83 ZM 302.41 779.50 L 279.24 779.50 C262.57,779.50 255.73,779.67 253.09,780.30 C253.32,780.07 253.51,779.92 253.68,779.86 C254.68,779.46 266.63,779.11 280.23,779.07 C282.37,779.06 284.34,779.05 286.14,779.04 C294.45,779.00 299.34,778.97 302.41,779.50 ZM 701.17 766.58 C700.80,769.91 702.34,768.95 703.49,765.13 C704.03,763.37 703.86,762.88 702.85,763.21 C702.11,763.45 701.35,764.97 701.17,766.58 ZM 327.18 493.78 C329.05,495.65 329.23,494.52 327.63,490.87 C326.25,487.70 326.16,487.65 326.08,490.05 C326.04,491.45 326.53,493.13 327.18,493.78 ZM 579.25 387.44 C581.13,389.49 581.26,388.61 579.63,384.87 C578.38,382.00 578.15,381.84 578.08,383.79 C578.04,385.05 578.56,386.70 579.25,387.44 ZM 265.02 687.25 C265.01,687.66 265.40,688.00 265.89,688.00 C267.00,688.00 268.26,684.92 267.47,684.14 C266.88,683.55 265.04,685.88 265.02,687.25 ZM 747.90 779.23 L 747.50 779.23 L 724.41 779.47 C728.01,779.15 735.09,779.10 747.90,779.23 ZM 557.45 754.95 C556.32,753.22 554.79,751.43 553.59,750.65 C553.17,750.38 552.79,750.14 552.45,749.94 C554.80,750.88 556.06,752.42 557.45,754.95 ZM 619.00 716.22 C619.00,715.24 619.00,714.32 619.00,713.43 C618.99,708.86 618.98,705.54 619.27,703.12 C618.73,711.18 619.05,732.21 620.03,734.06 C619.45,732.96 619.00,725.27 619.00,716.22 ZM 622.91 757.50 C621.49,757.68 620.81,758.00 620.47,758.63 L 620.50 757.50 ZM 530.88 697.02 C525.13,697.07 519.08,697.42 517.93,698.04 C519.34,697.28 525.11,696.96 530.88,697.02 ZM 774.94 780.38 C774.84,780.29 774.74,780.20 774.63,780.11 C774.29,779.83 773.12,779.62 770.98,779.46 L 774.50 779.50 ZM 374.27 739.25 C373.55,738.68 372.77,738.27 372.14,738.18 C371.81,738.13 371.53,738.10 371.30,738.11 C371.50,738.01 371.74,738.00 372.01,738.00 C372.65,738.00 373.40,738.41 374.27,739.25 ZM 449.48 737.48 C449.11,737.16 448.54,737.01 447.75,737.02 C446.39,737.03 444.97,738.21 442.76,741.29 C444.94,738.19 446.35,737.01 447.75,737.01 C448.58,737.01 449.13,737.13 449.48,737.48 ZM 568.27 733.87 C568.18,734.25 568.16,734.65 568.22,735.02 C568.08,734.78 568.00,734.62 568.00,734.53 C568.00,734.41 568.10,734.18 568.27,733.87 ZM 720.26 782.00 L 720.25 782.02 C720.70,781.11 721.05,780.48 721.25,780.23 C721.28,780.19 721.33,780.15 721.38,780.11 ZM 517.75 725.97 C517.08,725.56 516.66,724.98 516.40,723.51 C516.66,724.97 517.08,725.53 517.75,725.92 C517.89,726.00 518.02,726.07 518.15,726.14 C517.98,726.09 517.85,726.03 517.75,725.97 ZM 278.03 718.49 C278.37,718.21 278.70,718.08 279.03,718.09 C278.71,718.12 278.38,718.26 278.03,718.49 ZM 450.06 739.94 C450.02,739.58 450.00,739.23 450.00,738.92 C450.00,738.88 450.00,738.84 450.00,738.81 C450.03,739.08 450.05,739.39 450.06,739.75 C450.06,739.80 450.06,739.87 450.06,739.94 ZM 559.28 767.61 C559.53,766.85 559.72,766.02 559.84,765.17 C559.73,766.00 559.55,766.81 559.28,767.61 Z" fill="rgb(233,232,232)"/>
<path d="M 561.00 797.07 C561.00,796.52 561.90,795.59 563.00,795.00 C564.29,794.31 565.00,794.29 565.00,794.93 C565.00,795.48 564.10,796.41 563.00,797.00 C561.71,797.69 561.00,797.71 561.00,797.07 ZM 306.17 784.78 L 303.96 781.21 L 289.73 780.51 C274.14,779.75 256.92,780.20 253.00,781.47 C250.89,782.14 250.70,782.05 251.80,780.89 C252.84,779.77 258.25,779.50 279.24,779.50 L 305.39 779.50 L 307.28 782.74 C309.92,787.26 308.88,789.17 306.17,784.78 ZM 720.26 782.00 L 721.74 779.50 L 747.50 779.23 C765.66,779.04 773.66,779.30 774.63,780.11 C776.85,781.95 776.20,783.18 773.75,781.79 C772.08,780.83 765.09,780.50 746.79,780.50 C723.30,780.50 722.00,780.60 720.43,782.50 C718.86,784.40 718.85,784.38 720.26,782.00 ZM 556.80 769.80 C557.46,769.14 558.01,767.45 558.02,766.05 C558.02,764.65 558.47,762.83 559.00,762.00 C559.76,760.83 559.97,761.08 559.98,763.18 C560.01,766.83 558.32,771.00 556.82,771.00 C555.87,771.00 555.87,770.73 556.80,769.80 ZM 701.17 766.58 C701.35,764.97 702.11,763.45 702.85,763.21 C703.86,762.88 704.03,763.37 703.49,765.13 C702.34,768.95 700.80,769.91 701.17,766.58 ZM 620.21 759.50 C620.47,757.84 621.36,757.47 625.51,757.33 L 630.50 757.15 L 626.07 758.05 C623.64,758.55 621.25,759.53 620.77,760.23 C620.16,761.12 619.99,760.90 620.21,759.50 ZM 555.52 756.03 C554.67,754.39 553.00,752.14 551.80,751.03 C549.17,748.58 550.12,748.38 553.59,750.65 C555.75,752.07 559.00,756.75 559.00,758.45 C559.00,760.10 556.84,758.60 555.52,756.03 ZM 441.24 743.52 C444.37,738.76 446.10,737.04 447.75,737.02 C449.31,737.01 450.00,737.59 450.00,738.92 C450.00,739.97 450.27,741.55 450.61,742.42 C450.94,743.29 450.75,744.00 450.17,744.00 C449.60,744.00 448.85,743.10 448.50,742.00 C448.15,740.90 447.39,740.00 446.81,740.00 C445.49,740.00 440.21,745.91 439.44,748.25 C439.12,749.21 438.44,750.00 437.93,750.00 C437.41,750.00 438.90,747.08 441.24,743.52 ZM 370.17 743.18 C370.01,738.27 370.16,737.89 372.14,738.18 C373.31,738.36 375.00,739.61 375.89,740.97 L 377.50 743.44 L 375.03 741.72 C371.52,739.28 371.16,739.49 370.73,744.25 C370.37,748.26 370.34,748.20 370.17,743.18 ZM 678.05 736.91 C678.66,735.77 679.41,735.07 679.70,735.37 C680.53,736.20 679.21,739.00 678.00,739.00 C677.26,739.00 677.27,738.36 678.05,736.91 ZM 568.34 735.43 C568.01,734.57 568.24,733.36 568.87,732.73 C569.71,731.89 570.00,732.29 570.00,734.30 C570.00,737.31 569.25,737.82 568.34,735.43 ZM 620.04 734.07 C618.81,731.78 618.61,700.00 619.82,700.00 C620.26,700.00 620.50,705.74 620.33,712.75 C620.17,719.76 620.30,727.65 620.62,730.28 L 621.20 735.06 L 633.67 734.93 C640.53,734.86 646.41,735.07 646.74,735.40 C647.06,735.73 641.42,736.00 634.20,736.00 C622.24,736.00 620.98,735.83 620.04,734.07 ZM 273.00 728.55 C273.00,727.27 275.43,723.00 276.16,723.00 C277.26,723.00 277.22,723.42 275.84,726.45 C274.85,728.62 273.00,729.99 273.00,728.55 ZM 282.47 726.20 C281.94,725.81 280.99,724.60 280.36,723.50 C279.74,722.40 278.50,721.56 277.61,721.64 C275.70,721.80 275.54,720.86 277.20,719.20 C279.30,717.10 280.65,717.89 282.34,722.18 C284.06,726.55 284.08,727.35 282.47,726.20 ZM 517.75 725.92 C516.23,725.03 516.00,723.23 516.00,711.99 C516.00,700.24 516.18,698.98 517.93,698.04 C520.21,696.82 542.00,696.62 542.00,697.82 C542.00,698.27 537.12,698.61 531.16,698.57 C516.78,698.48 517.00,698.26 517.00,712.11 C517.00,721.90 517.20,723.11 519.00,724.23 C522.46,726.39 521.28,727.98 517.75,725.92 ZM 772.71 718.00 C772.42,716.90 772.60,716.00 773.09,716.00 C773.59,716.00 774.00,716.19 774.00,716.42 C774.00,716.65 774.27,717.55 774.61,718.42 C774.94,719.29 774.77,720.00 774.22,720.00 C773.68,720.00 773.00,719.10 772.71,718.00 ZM 630.50 698.00 L 621.50 697.38 L 634.00 697.26 C641.75,697.19 645.74,697.47 644.50,698.00 C643.40,698.47 641.83,698.81 641.00,698.74 C640.17,698.68 635.45,698.34 630.50,698.00 ZM 732.70 691.03 C732.98,689.95 733.84,688.55 734.61,687.91 C736.26,686.54 736.33,687.00 735.02,690.43 C733.89,693.43 731.94,693.93 732.70,691.03 ZM 265.02 687.25 C265.04,685.88 266.88,683.55 267.47,684.14 C268.26,684.92 267.00,688.00 265.89,688.00 C265.40,688.00 265.01,687.66 265.02,687.25 ZM 480.50 621.27 C478.30,621.05 476.07,620.45 475.55,619.93 C474.32,618.72 476.50,618.82 486.50,620.46 C493.47,621.59 493.86,621.75 489.50,621.71 C486.75,621.69 482.70,621.48 480.50,621.27 ZM 589.00 605.60 C589.00,605.38 590.40,604.71 592.11,604.11 C594.82,603.17 595.06,603.22 593.99,604.51 C592.90,605.82 589.00,606.67 589.00,605.60 ZM 389.26 512.75 C390.11,510.36 390.52,509.98 390.80,511.31 C391.26,513.57 390.38,516.00 389.08,516.00 C388.48,516.00 388.55,514.75 389.26,512.75 ZM 579.99 508.46 C577.90,502.14 578.39,502.00 602.90,502.00 C620.88,502.00 624.93,502.26 626.78,503.56 C628.00,504.41 629.00,505.61 629.00,506.21 C629.00,506.82 628.13,506.53 627.08,505.57 C625.39,504.05 622.42,503.79 603.50,503.54 C579.70,503.22 579.53,503.27 581.75,509.15 C582.34,510.72 582.45,512.00 581.99,512.00 C581.53,512.00 580.63,510.41 579.99,508.46 ZM 327.18 493.78 C326.53,493.13 326.04,491.45 326.08,490.05 C326.16,487.65 326.25,487.70 327.63,490.87 C329.23,494.52 329.05,495.65 327.18,493.78 ZM 398.10 491.25 C398.70,489.46 399.60,488.00 400.10,488.00 C401.49,488.00 401.14,489.27 398.98,492.00 L 397.01 494.50 L 398.10 491.25 ZM 501.00 487.83 C501.00,487.42 502.58,486.85 504.50,486.55 C506.42,486.25 509.54,485.76 511.42,485.47 C513.30,485.18 515.09,485.33 515.38,485.81 C515.68,486.29 512.56,487.11 508.46,487.63 C504.36,488.15 501.00,488.24 501.00,487.83 ZM 643.00 485.26 C643.00,483.85 649.69,482.94 652.31,483.99 C654.41,484.84 654.39,484.88 651.88,484.94 C650.43,484.97 647.84,485.28 646.12,485.62 C644.30,485.99 643.00,485.84 643.00,485.26 ZM 670.56 480.53 C672.75,478.88 675.61,478.56 676.42,479.88 C676.72,480.36 675.57,481.04 673.86,481.38 C669.14,482.32 668.43,482.14 670.56,480.53 ZM 484.50 475.93 C493.43,473.53 494.85,473.57 488.50,476.05 C485.75,477.12 482.15,477.96 480.50,477.91 C478.40,477.85 479.60,477.25 484.50,475.93 ZM 414.04 453.37 C414.05,452.89 414.71,451.38 415.50,450.00 C416.85,447.65 416.93,447.62 416.96,449.63 C416.98,450.80 416.33,452.32 415.50,453.00 C414.67,453.68 414.02,453.85 414.04,453.37 ZM 579.25 387.44 C578.56,386.70 578.04,385.05 578.08,383.79 C578.15,381.84 578.38,382.00 579.63,384.87 C581.26,388.61 581.13,389.49 579.25,387.44 ZM 480.00 292.61 C480.00,292.40 480.66,290.72 481.46,288.86 C482.61,286.21 482.93,285.96 482.96,287.67 C483.01,290.47 482.03,293.00 480.89,293.00 C480.40,293.00 480.00,292.83 480.00,292.61 Z" fill="rgb(250,213,189)"/>
</g>
</svg>