<svg xmlns="http://www.w3.org/2000/svg" width="1344" height="768" viewBox="0 0 1344 768">
<g>
<path d="M 0.00 0.00 L 1344.00 0.00 L 1344.00 768.00 L 0.00 768.00 ZM 359.25 447.75 C360.98,449.54 362.97,451.00 363.68,451.00 C364.40,451.00 366.77,447.43 368.96,443.08 C371.15,438.72 373.41,434.87 373.97,434.52 C374.54,434.17 375.00,432.53 375.00,430.87 C375.00,425.97 380.69,413.46 383.50,412.18 C384.83,411.57 386.16,411.45 386.44,411.90 C387.59,413.76 387.22,418.74 385.66,422.37 C382.21,430.43 384.31,431.02 393.39,424.54 C409.46,413.07 425.06,408.12 447.75,407.28 C458.34,406.89 463.32,406.32 464.06,405.43 C465.62,403.55 462.15,390.52 458.84,385.81 C455.48,381.02 439.01,339.49 439.00,335.79 C439.00,333.13 435.04,324.86 432.46,322.11 C431.74,321.35 430.42,321.01 429.52,321.36 C427.61,322.09 421.76,334.25 416.47,348.50 C414.42,354.00 411.17,361.65 409.24,365.50 C407.30,369.35 404.88,374.98 403.85,378.00 C399.27,391.43 393.77,402.78 391.31,403.90 C387.81,405.50 387.26,404.73 388.04,399.30 C388.57,395.57 408.74,345.38 416.49,328.48 C417.25,326.83 418.38,324.13 419.00,322.48 C419.62,320.84 423.70,311.14 428.07,300.92 C432.43,290.70 436.00,281.36 436.00,280.17 C436.00,277.40 433.84,277.37 419.92,279.92 C408.70,281.98 399.39,285.72 385.57,293.72 C376.94,298.71 361.09,313.70 355.59,322.07 C353.99,324.51 351.50,328.30 350.06,330.50 C346.59,335.80 345.61,338.02 342.61,347.50 C338.00,362.09 336.90,368.84 336.91,382.62 C336.91,397.55 339.32,411.45 343.46,420.51 C344.86,423.56 346.00,426.25 346.00,426.48 C346.00,427.96 356.67,445.08 359.25,447.75 ZM 424.00 485.42 C440.77,488.42 461.88,486.13 478.08,479.54 C488.81,475.19 506.00,463.83 506.00,461.11 C506.00,460.71 503.25,458.83 499.88,456.94 C496.52,455.05 491.15,450.71 487.96,447.30 C482.02,440.94 474.21,427.09 475.45,425.08 C476.21,423.86 497.87,423.57 499.51,424.77 C500.07,425.17 502.70,430.67 505.35,437.00 C511.34,451.25 511.28,451.14 513.27,452.40 C514.53,453.20 515.51,452.87 517.55,450.97 C521.78,447.01 530.96,432.57 534.22,424.73 C535.88,420.75 537.85,416.79 538.61,415.92 C539.38,415.05 540.00,412.69 540.00,410.67 C540.00,405.99 538.26,405.88 530.04,410.06 C522.33,413.98 512.43,415.07 491.23,414.34 C457.80,413.18 428.79,415.81 413.22,421.40 C397.82,426.92 372.35,453.30 374.43,461.58 C375.03,463.97 384.53,470.77 393.68,475.36 C396.53,476.79 399.14,478.42 399.49,478.99 C400.70,480.94 406.05,483.07 410.77,483.48 C413.37,483.71 419.33,484.59 424.00,485.42 ZM 493.21 405.75 C495.52,408.54 521.64,406.79 528.18,403.41 C532.86,400.99 537.87,394.97 540.07,389.12 C541.93,384.19 542.13,382.03 541.71,371.50 C541.15,357.55 539.54,350.97 533.57,338.39 C527.62,325.82 522.05,317.92 512.42,308.36 C500.49,296.53 490.77,290.35 472.90,283.21 C464.05,279.68 446.67,276.93 444.83,278.77 C443.46,280.14 445.17,287.57 448.14,293.23 C449.22,295.27 452.27,302.92 454.93,310.23 C459.50,322.80 464.82,336.17 472.66,354.78 C474.58,359.33 477.85,367.89 479.93,373.80 C482.01,379.71 484.50,386.06 485.45,387.91 C486.41,389.76 488.31,394.25 489.68,397.89 C491.05,401.52 492.64,405.06 493.21,405.75 ZM 762.82 429.36 C764.37,431.08 765.90,431.19 782.50,430.80 C803.25,430.31 806.82,429.29 813.35,422.05 C817.72,417.19 819.65,413.12 821.04,405.78 C822.17,399.81 821.04,395.38 817.00,390.00 C815.55,388.08 814.08,386.00 813.71,385.39 C813.35,384.78 813.94,381.75 815.03,378.66 C817.46,371.73 817.51,367.93 815.25,361.52 C812.99,355.10 807.57,349.67 801.37,347.65 C794.15,345.28 764.44,345.13 762.13,347.44 C760.67,348.91 760.53,353.11 760.82,388.29 C761.11,423.31 761.32,427.70 762.82,429.36 ZM 662.16 428.67 C663.97,430.60 664.98,430.87 668.41,430.37 C676.03,429.24 676.18,428.78 676.24,407.13 C676.27,396.61 676.61,388.00 676.99,388.00 C678.42,388.00 682.40,392.87 690.88,405.00 C699.19,416.88 699.79,417.50 703.06,417.50 C706.35,417.50 706.87,416.95 715.23,404.57 C720.02,397.47 724.46,391.33 725.09,390.94 C725.72,390.55 727.08,391.08 728.12,392.12 C729.81,393.81 730.00,395.67 730.00,410.17 C730.00,429.13 730.35,430.00 738.00,430.00 C738.33,430.00 738.64,430.00 738.94,430.01 C740.77,430.02 742.14,430.03 743.15,429.44 C746.17,427.69 746.11,420.63 745.87,392.62 C745.85,391.06 745.84,389.43 745.82,387.74 C745.54,354.60 745.49,347.77 742.70,346.36 C741.98,346.00 741.07,346.00 739.93,346.00 L 739.92 346.00 C736.39,346.00 734.31,348.13 727.25,359.00 C724.21,363.67 720.30,369.30 718.55,371.50 C716.80,373.70 713.86,378.06 712.01,381.19 C710.16,384.32 707.44,387.77 705.98,388.86 C701.04,392.51 699.60,391.04 680.20,362.47 C671.03,348.97 668.87,346.39 666.06,345.59 L 666.03 345.58 C664.61,345.17 663.52,344.86 662.69,345.19 C660.00,346.26 660.00,354.08 660.00,387.17 L 660.00 387.38 C660.00,425.96 660.02,426.40 662.16,428.67 ZM 832.79 427.75 C833.83,429.57 834.95,430.00 838.71,430.00 C846.42,430.00 847.00,428.87 847.00,413.85 L 847.00 401.00 L 850.85 401.00 C851.12,401.00 851.37,400.99 851.60,400.99 C852.15,400.98 852.60,400.97 853.04,401.04 C855.28,401.42 857.14,404.03 869.60,420.00 C873.25,424.67 876.75,428.83 877.37,429.23 C877.99,429.64 880.49,429.98 882.92,429.98 C887.87,430.00 891.01,427.90 890.98,424.60 C890.96,423.44 887.14,417.58 882.48,411.57 C877.81,405.56 874.00,400.28 874.00,399.84 C874.00,399.40 875.69,398.17 877.75,397.11 C897.60,386.90 895.30,354.74 874.21,347.55 C867.35,345.22 834.83,345.30 832.87,347.65 C830.93,350.00 830.85,424.36 832.79,427.75 ZM 576.25 428.77 C578.15,430.79 579.12,431.07 582.40,430.55 C587.73,429.70 587.86,429.58 591.13,422.36 L 594.02 416.00 L 631.08 416.00 L 633.97 422.42 C637.99,431.40 643.01,433.49 648.69,428.57 L 651.50 426.15 L 649.38 420.32 C647.09,414.04 640.06,396.99 637.09,390.50 C636.08,388.30 631.54,377.64 626.99,366.81 C619.72,349.51 618.37,346.98 615.83,345.93 C613.87,345.12 611.90,345.03 609.74,345.64 C607.01,346.43 606.13,347.56 603.63,353.53 C602.02,357.36 599.20,363.73 597.35,367.69 C595.51,371.64 594.00,375.31 594.00,375.85 C594.00,378.23 586.73,393.50 585.04,394.69 C583.01,396.11 580.98,401.26 581.17,404.50 C581.24,405.60 579.65,410.17 577.65,414.66 C573.38,424.21 573.25,425.57 576.25,428.77 ZM 899.88 428.88 C902.19,431.19 905.40,431.56 909.50,430.00 C911.37,429.29 912.95,427.17 915.02,422.62 L 917.91 416.24 L 923.42 415.55 C926.45,415.17 934.83,415.19 942.03,415.58 L 955.14 416.29 L 958.15 423.03 C961.04,429.48 961.34,429.80 965.28,430.43 C969.95,431.18 974.27,428.85 974.80,425.29 C974.97,424.19 968.40,407.58 960.22,388.39 C952.03,369.20 944.77,352.08 944.08,350.34 C942.49,346.32 938.19,344.37 933.72,345.65 C930.02,346.70 929.47,347.69 921.32,367.99 C918.34,375.41 914.77,383.42 913.39,385.78 C912.00,388.15 910.18,392.43 909.33,395.29 C908.48,398.16 905.77,404.77 903.30,410.00 C897.72,421.79 896.96,425.96 899.88,428.88 ZM 864.46 385.01 C856.87,386.25 850.98,386.22 848.75,384.92 C847.24,384.04 847.00,382.30 847.00,372.45 L 847.00 361.00 L 869.20 361.00 L 872.72 364.52 C876.07,367.87 876.22,368.32 875.78,373.59 C875.17,381.01 872.51,383.69 864.46,385.01 ZM 801.94 411.56 C798.97,414.41 798.52,414.51 787.44,414.84 L 776.00 415.17 L 776.00 406.71 C776.00,398.28 776.01,398.24 778.94,397.03 C780.81,396.25 785.56,395.93 792.02,396.15 C803.65,396.55 805.00,397.42 805.00,404.50 C805.00,407.80 804.38,409.22 801.94,411.56 ZM 795.42 378.86 C791.77,380.52 777.08,380.37 776.42,378.66 C776.14,377.93 776.04,373.76 776.21,369.41 L 776.50 361.50 L 786.15 361.21 C795.03,360.95 796.01,361.11 798.30,363.21 C800.77,365.48 800.78,365.55 799.36,371.61 C798.23,376.42 797.39,377.95 795.42,378.86 ZM 622.93 399.36 C622.01,400.19 607.00,400.65 607.00,399.85 C607.00,399.38 606.15,399.00 605.11,399.00 C604.07,399.00 602.98,398.40 602.70,397.67 C602.20,396.37 609.26,378.34 610.92,376.68 C612.51,375.09 615.50,378.19 617.82,383.84 C621.14,391.93 623.44,398.90 622.93,399.36 ZM 943.20 397.75 C942.92,398.60 940.43,399.00 935.41,399.00 C928.47,399.00 928.00,398.86 927.44,396.61 C926.85,394.29 933.17,377.63 935.09,376.45 C939.07,373.99 945.48,390.82 943.20,397.75 Z" fill="rgb(239,239,239)"/>
<path d="M 359.25 447.75 C356.67,445.08 346.00,427.96 346.00,426.48 C346.00,426.25 344.86,423.56 343.46,420.51 C339.32,411.45 336.91,397.55 336.91,382.62 C336.90,368.84 338.00,362.09 342.61,347.50 C345.61,338.02 346.59,335.80 350.06,330.50 C351.50,328.30 353.99,324.51 355.59,322.07 C361.09,313.70 376.94,298.71 385.57,293.72 C399.39,285.72 408.70,281.98 419.92,279.92 C433.84,277.37 436.00,277.40 436.00,280.17 C436.00,281.36 432.43,290.70 428.07,300.92 C423.70,311.14 419.62,320.84 419.00,322.48 C418.38,324.13 417.25,326.83 416.49,328.48 C408.74,345.38 388.57,395.57 388.04,399.30 C387.90,400.24 387.80,401.05 387.76,401.72 C387.76,401.36 387.78,400.95 387.80,400.50 C388.04,396.75 387.84,396.99 384.53,404.42 C382.59,408.77 381.19,412.52 381.41,412.75 C381.59,412.92 382.25,412.80 383.04,412.47 C380.11,414.74 375.00,426.23 375.00,430.87 C375.00,431.34 374.96,431.80 374.90,432.23 C374.94,431.90 374.96,431.54 374.95,431.19 C374.92,429.06 374.29,429.83 371.95,434.89 C370.33,438.40 369.02,441.55 369.04,441.89 C369.07,442.22 369.96,440.84 371.03,438.81 C372.07,436.86 373.35,434.98 373.93,434.55 C373.31,435.04 371.10,438.81 368.96,443.08 C366.77,447.43 364.40,451.00 363.68,451.00 C362.97,451.00 360.98,449.54 359.25,447.75 ZM 424.00 485.42 C419.33,484.59 413.37,483.71 410.77,483.48 C410.07,483.42 409.36,483.32 408.65,483.19 C409.47,483.29 410.21,483.30 410.77,483.19 C413.54,482.66 412.41,482.12 401.12,478.54 C399.45,478.01 398.95,478.21 399.31,478.78 C398.60,478.09 396.23,476.64 393.68,475.36 C384.53,470.77 375.03,463.97 374.43,461.58 C372.35,453.30 397.82,426.92 413.22,421.40 C428.79,415.81 457.80,413.18 491.23,414.34 C512.43,415.07 522.33,413.98 530.04,410.06 C535.98,407.04 538.54,406.26 539.50,407.82 L 538.48 411.50 C537.71,414.25 537.07,416.67 537.04,416.87 C537.02,417.08 537.67,416.68 538.50,416.00 C538.59,415.93 538.67,415.84 538.75,415.75 C538.71,415.81 538.66,415.87 538.61,415.92 C537.85,416.79 535.88,420.75 534.22,424.73 C530.96,432.57 521.78,447.01 517.55,450.97 C515.51,452.87 514.53,453.20 513.27,452.40 C511.28,451.14 511.34,451.25 505.35,437.00 C502.70,430.67 500.07,425.17 499.51,424.77 C497.87,423.57 476.21,423.86 475.45,425.08 C474.21,427.09 482.02,440.94 487.96,447.30 C491.15,450.71 496.52,455.05 499.88,456.94 C503.25,458.83 506.00,460.71 506.00,461.11 C506.00,463.83 488.81,475.19 478.08,479.54 C461.88,486.13 440.77,488.42 424.00,485.42 ZM 493.21 405.75 C492.64,405.06 491.05,401.52 489.68,397.89 C488.31,394.25 486.41,389.76 485.45,387.91 C484.50,386.06 482.01,379.71 479.93,373.80 C477.85,367.89 474.58,359.33 472.66,354.78 C464.82,336.17 459.50,322.80 454.93,310.23 C452.27,302.92 449.22,295.27 448.14,293.23 C445.17,287.57 443.46,280.14 444.83,278.77 C446.67,276.93 464.05,279.68 472.90,283.21 C490.77,290.35 500.49,296.53 512.42,308.36 C522.05,317.92 527.62,325.82 533.57,338.39 C539.54,350.97 541.15,357.55 541.71,371.50 C542.13,382.03 541.93,384.19 540.07,389.12 C537.87,394.97 532.86,400.99 528.18,403.41 C521.64,406.79 495.52,408.54 493.21,405.75 ZM 762.82 429.36 C761.32,427.70 761.11,423.31 760.82,388.29 C760.53,353.11 760.67,348.91 762.13,347.44 C764.44,345.13 794.15,345.28 801.37,347.65 C807.57,349.67 812.99,355.10 815.25,361.52 C817.51,367.93 817.46,371.73 815.03,378.66 C814.25,380.88 813.72,383.07 813.62,384.35 C813.42,383.65 813.37,383.06 813.49,382.57 C813.95,380.74 813.87,380.77 812.85,382.77 C811.87,384.67 812.01,385.39 813.78,387.27 C817.25,390.97 819.95,398.11 820.09,404.00 L 820.22 409.48 C818.87,414.62 816.93,418.08 813.35,422.05 C806.82,429.29 803.25,430.31 782.50,430.80 C765.90,431.19 764.37,431.08 762.82,429.36 ZM 662.16 428.67 C660.02,426.40 660.00,425.96 660.00,387.38 L 660.00 387.17 C660.00,354.08 660.00,346.26 662.69,345.19 C663.52,344.86 664.61,345.17 666.03,345.58 L 666.06 345.59 C668.87,346.39 671.03,348.97 680.20,362.47 C691.50,379.11 696.71,386.56 700.06,389.15 C699.44,388.74 698.76,388.23 698.03,387.60 C695.71,385.62 695.64,385.62 696.98,387.50 C697.77,388.60 699.29,390.51 700.38,391.75 C702.88,394.61 703.39,394.57 705.46,391.41 C706.54,389.77 706.89,388.57 706.62,388.31 C708.15,386.87 710.41,383.91 712.01,381.19 C713.86,378.06 716.80,373.70 718.55,371.50 C720.30,369.30 724.21,363.67 727.25,359.00 C734.31,348.13 736.39,346.00 739.92,346.00 L 739.93 346.00 C741.07,346.00 741.98,346.00 742.70,346.36 C745.49,347.77 745.54,354.60 745.82,387.74 C745.84,389.43 745.85,391.06 745.87,392.62 L 745.87 392.62 C746.11,420.63 746.17,427.69 743.15,429.44 C742.14,430.03 740.77,430.02 738.94,430.01 C738.64,430.00 738.33,430.00 738.00,430.00 C730.35,430.00 730.00,429.13 730.00,410.17 C730.00,397.96 729.86,394.71 728.81,392.98 C729.46,392.89 730.00,391.88 730.00,390.17 C730.00,386.40 729.05,385.64 726.83,387.65 C724.97,389.33 724.25,391.58 725.90,390.56 C726.38,390.26 727.04,390.68 727.35,391.48 C726.49,390.89 725.58,390.64 725.09,390.94 C724.46,391.33 720.02,397.47 715.23,404.57 C706.87,416.95 706.35,417.50 703.06,417.50 C699.79,417.50 699.19,416.88 690.88,405.00 C685.05,396.65 681.34,391.74 679.13,389.49 C679.64,389.88 680.00,389.86 680.00,389.40 C680.00,388.00 677.85,386.00 676.34,386.00 C675.37,386.00 675.01,390.91 674.79,406.95 C674.66,416.55 674.81,424.44 675.13,426.53 C674.12,429.41 672.18,429.81 668.41,430.37 C664.98,430.87 663.97,430.60 662.16,428.67 ZM 832.79 427.75 C830.85,424.36 830.93,350.00 832.87,347.65 C834.83,345.30 867.35,345.22 874.21,347.55 C895.30,354.74 897.60,386.90 877.75,397.11 C875.69,398.17 874.00,399.40 874.00,399.84 C874.00,400.28 877.81,405.56 882.48,411.57 C887.14,417.58 890.96,423.44 890.98,424.60 C891.01,427.90 887.87,430.00 882.92,429.98 C880.49,429.98 877.99,429.64 877.37,429.23 C876.75,428.83 873.25,424.67 869.60,420.00 C857.14,404.03 855.28,401.42 853.04,401.04 C852.60,400.97 852.15,400.98 851.60,400.99 C851.37,400.99 851.12,401.00 850.85,401.00 L 847.00 401.00 L 847.00 413.85 C847.00,428.87 846.42,430.00 838.71,430.00 C834.95,430.00 833.83,429.57 832.79,427.75 ZM 461.83 396.00 C462.35,397.28 462.49,397.25 462.77,395.85 C462.83,395.57 462.78,395.10 462.65,394.51 C464.15,399.37 464.97,404.33 464.06,405.43 C463.32,406.32 458.34,406.89 447.75,407.28 C425.06,408.12 409.46,413.07 393.39,424.54 C384.31,431.02 382.21,430.43 385.66,422.37 C386.48,420.46 386.97,418.18 387.08,416.18 C387.36,417.68 388.41,415.81 391.11,409.42 C393.41,403.96 393.59,402.95 392.19,403.53 C391.95,403.63 391.72,403.72 391.50,403.80 C394.05,402.21 399.38,391.10 403.85,378.00 C404.88,374.98 407.30,369.35 409.24,365.50 C411.17,361.65 414.42,354.00 416.47,348.50 C421.76,334.25 427.61,322.09 429.52,321.36 C430.42,321.01 431.74,321.35 432.46,322.11 C432.76,322.44 433.08,322.83 433.42,323.29 C433.39,323.29 433.36,323.30 433.34,323.33 C433.19,323.48 434.29,326.88 435.78,330.89 C437.69,336.01 438.60,337.52 438.84,335.94 C438.99,334.92 437.61,331.10 436.17,327.92 C437.74,330.99 439.00,334.28 439.00,335.79 C439.01,339.28 453.65,376.40 458.14,384.64 C458.04,384.55 457.95,384.47 457.87,384.42 C457.12,383.96 458.27,387.33 461.83,396.00 ZM 899.88 428.88 C896.96,425.96 897.72,421.79 903.30,410.00 C905.77,404.77 908.48,398.16 909.33,395.29 C910.18,392.43 912.00,388.15 913.39,385.78 C914.77,383.42 918.34,375.41 921.32,367.99 C929.47,347.69 930.02,346.70 933.72,345.65 C938.19,344.37 942.49,346.32 944.08,350.34 C944.77,352.08 952.03,369.20 960.22,388.39 C968.40,407.58 974.97,424.19 974.80,425.29 C974.27,428.85 969.95,431.18 965.28,430.43 C961.34,429.80 961.04,429.48 958.15,423.03 L 955.14 416.29 L 942.03 415.58 C934.83,415.19 926.45,415.17 923.42,415.55 L 917.91 416.24 L 915.02 422.62 C912.95,427.17 911.37,429.29 909.50,430.00 C905.40,431.56 902.19,431.19 899.88,428.88 ZM 576.25 428.77 C573.25,425.57 573.38,424.21 577.65,414.66 C579.65,410.17 581.24,405.60 581.17,404.50 L 581.17 404.48 C581.24,404.79 581.43,404.80 581.72,404.50 C583.04,403.16 586.20,394.87 585.62,394.29 C585.58,394.25 585.54,394.22 585.49,394.21 C587.76,391.33 594.00,378.05 594.00,375.85 C594.00,375.31 595.51,371.64 597.35,367.69 C599.20,363.73 602.02,357.36 603.63,353.53 C606.13,347.56 607.01,346.43 609.74,345.64 C611.90,345.03 613.87,345.12 615.83,345.93 C618.37,346.98 619.72,349.51 626.99,366.81 C631.54,377.64 636.08,388.30 637.09,390.50 C640.06,396.99 647.09,414.04 649.38,420.32 L 651.50 426.15 L 648.69 428.57 C643.01,433.49 637.99,431.40 633.97,422.42 L 631.08 416.00 L 594.02 416.00 L 591.13 422.36 C587.86,429.58 587.73,429.70 582.40,430.55 C579.12,431.07 578.15,430.79 576.25,428.77 ZM 864.46 385.01 C872.51,383.69 875.17,381.01 875.78,373.59 C876.22,368.32 876.07,367.87 872.72,364.52 L 869.20 361.00 L 847.00 361.00 L 847.00 372.45 C847.00,382.30 847.24,384.04 848.75,384.92 C850.98,386.22 856.87,386.25 864.46,385.01 ZM 801.94 411.56 C804.38,409.22 805.00,407.80 805.00,404.50 C805.00,397.61 803.72,396.60 792.96,396.19 C798.88,396.36 801.53,396.13 800.90,395.50 C800.36,394.95 794.69,394.35 788.32,394.16 C779.43,393.90 776.53,394.13 775.88,395.16 C775.41,395.90 775.11,399.42 775.20,403.00 L 775.38 409.50 L 775.74 403.85 C775.88,401.65 776.01,400.28 776.32,399.35 C776.00,400.59 776.00,402.71 776.00,406.71 L 776.00 415.17 L 787.44 414.84 C798.52,414.51 798.97,414.41 801.94,411.56 ZM 795.42 378.86 C796.96,378.15 797.81,377.07 798.64,374.34 C798.29,375.88 798.06,377.04 798.04,377.31 C798.02,377.75 798.44,377.85 798.97,377.52 C800.54,376.55 802.34,369.32 801.51,367.33 C801.06,366.23 800.64,366.59 799.98,368.87 C800.69,365.45 800.32,365.07 798.30,363.21 C796.01,361.11 795.03,360.95 786.15,361.21 L 776.50 361.50 L 776.21 369.41 C776.04,373.76 776.14,377.93 776.42,378.66 C777.08,380.37 791.77,380.52 795.42,378.86 ZM 925.43 399.68 C926.16,401.58 946.85,401.57 947.57,399.68 C948.07,398.38 944.56,389.00 943.58,389.00 C943.43,389.00 943.34,389.48 943.31,390.25 C942.51,385.48 940.49,380.33 938.38,377.80 C938.79,377.78 938.90,376.91 938.42,375.64 C937.64,373.61 935.41,373.50 934.66,375.45 C934.37,376.20 934.50,376.56 935.01,376.50 C933.02,378.05 926.93,394.13 927.43,396.57 C927.41,396.49 927.39,396.40 927.36,396.31 L 926.69 393.62 L 925.81 395.99 C925.32,397.30 925.15,398.96 925.43,399.68 ZM 622.93 399.36 C623.44,398.90 621.14,391.93 617.82,383.84 C616.73,381.19 615.50,379.11 614.33,377.80 C614.78,377.85 614.92,376.97 614.42,375.64 C613.64,373.61 611.41,373.50 610.66,375.45 C610.34,376.28 610.53,376.63 611.19,376.47 C611.09,376.53 611.00,376.60 610.92,376.68 C609.26,378.34 602.20,396.37 602.70,397.67 C602.98,398.40 604.05,398.99 605.08,399.00 C604.03,399.00 602.97,398.44 602.72,397.75 C602.47,397.06 601.93,396.82 601.51,397.21 C601.10,397.60 601.02,398.61 601.35,399.46 C601.99,401.14 607.00,401.62 607.00,400.00 C607.00,399.45 606.15,399.01 605.11,399.00 C606.15,399.00 607.00,399.38 607.00,399.85 C607.00,400.65 622.01,400.19 622.93,399.36 ZM 820.24 409.42 L 821.09 405.03 C822.17,399.53 820.87,395.18 816.29,389.07 C816.02,388.70 815.76,388.35 815.53,388.00 C815.99,388.64 816.50,389.33 817.00,390.00 C821.04,395.38 822.17,399.81 821.04,405.78 C820.79,407.09 820.53,408.29 820.24,409.42 ZM 675.86 422.67 C676.08,418.98 676.23,413.32 676.24,407.13 C676.22,414.45 676.19,419.35 675.86,422.67 ZM 399.56 479.09 C400.23,479.82 401.84,480.90 403.96,481.87 C401.88,481.06 400.22,480.05 399.56,479.09 ZM 581.38 402.05 C581.30,402.48 581.24,402.85 581.20,403.17 C581.41,400.98 582.32,398.34 583.45,396.52 C582.57,398.12 581.72,400.28 581.38,402.05 ZM 704.93 389.58 C704.26,390.28 703.44,390.52 702.41,390.28 C703.28,390.38 704.07,390.10 704.93,389.58 ZM 676.95 388.00 C676.96,388.00 676.97,388.00 676.98,388.00 C676.61,388.13 676.27,396.67 676.24,407.11 C676.27,396.60 676.59,388.00 676.95,388.00 ZM 941.76 398.56 C940.54,398.96 938.56,399.00 935.41,399.00 C938.41,399.00 940.50,398.86 941.76,398.56 ZM 539.91 409.12 C539.97,409.57 540.00,410.08 540.00,410.67 C540.00,411.29 539.94,411.95 539.84,412.58 C539.91,411.98 539.94,411.32 539.93,410.63 ZM 384.20 411.90 C385.14,411.46 385.80,411.39 386.25,411.74 C385.87,411.54 385.08,411.61 384.20,411.90 ZM 613.49 376.98 C612.96,376.55 612.46,376.31 612.00,376.27 C612.59,376.25 613.19,376.52 613.49,376.98 ZM 928.13 398.15 C928.92,398.93 930.62,399.00 935.41,399.00 C930.60,399.00 928.92,398.97 928.13,398.15 ZM 386.50 412.01 C386.65,412.23 386.76,412.52 386.84,412.89 C386.75,412.56 386.64,412.26 386.50,412.01 ZM 936.65 376.36 C936.88,376.44 937.09,376.56 937.26,376.71 C937.06,376.57 936.85,376.45 936.65,376.36 Z" fill="rgb(222,80,6)"/>
<path d="M 404.16 481.96 C399.62,479.93 397.31,477.33 401.12,478.54 C412.41,482.12 413.54,482.66 410.77,483.19 C409.26,483.48 406.34,482.94 404.16,481.96 ZM 369.04 441.89 C369.02,441.55 370.33,438.40 371.95,434.89 C374.29,429.83 374.92,429.06 374.95,431.19 C374.98,432.67 374.55,434.16 373.99,434.51 C373.44,434.85 372.11,436.79 371.03,438.81 C369.96,440.84 369.07,442.22 369.04,441.89 ZM 674.79 406.95 C675.01,390.91 675.37,386.00 676.34,386.00 C677.85,386.00 680.00,388.00 680.00,389.40 C680.00,389.96 679.47,389.87 678.80,389.20 C678.14,388.54 677.31,388.00 676.95,388.00 C676.59,388.00 676.27,396.60 676.24,407.11 C676.21,417.61 675.81,426.59 675.34,427.06 C674.88,427.52 674.63,418.48 674.79,406.95 ZM 387.00 414.83 C387.00,411.55 386.16,410.84 383.78,412.12 C382.71,412.69 381.64,412.98 381.41,412.75 C381.19,412.52 382.59,408.77 384.53,404.42 C387.84,396.99 388.04,396.75 387.80,400.50 C387.55,404.64 388.27,405.14 392.19,403.53 C393.59,402.95 393.41,403.96 391.11,409.42 C387.85,417.13 387.00,418.25 387.00,414.83 ZM 537.04 416.87 C537.07,416.67 537.71,414.25 538.48,411.50 L 539.86 406.50 L 539.93 410.63 C539.97,413.15 539.42,415.24 538.50,416.00 C537.67,416.68 537.02,417.08 537.04,416.87 ZM 775.20 403.00 C775.11,399.42 775.41,395.90 775.88,395.16 C776.53,394.13 779.43,393.90 788.32,394.16 C794.69,394.35 800.36,394.95 800.90,395.50 C801.57,396.17 798.57,396.38 791.89,396.15 C785.61,395.94 780.80,396.25 778.98,397.01 C776.35,398.10 776.06,398.71 775.74,403.85 L 775.38 409.50 L 775.20 403.00 ZM 820.09 404.00 C819.95,398.11 817.25,390.97 813.78,387.27 C812.01,385.39 811.87,384.67 812.85,382.77 C813.87,380.77 813.95,380.74 813.49,382.57 C813.16,383.93 814.12,386.17 816.29,389.07 C820.87,395.18 822.17,399.53 821.09,405.03 L 820.22 409.50 L 820.09 404.00 ZM 581.38 402.05 C582.05,398.51 584.80,393.47 585.62,394.29 C586.20,394.87 583.04,403.16 581.72,404.50 C581.07,405.16 580.96,404.31 581.38,402.05 ZM 601.35 399.46 C601.02,398.61 601.10,397.60 601.51,397.21 C601.93,396.82 602.47,397.06 602.72,397.75 C602.97,398.44 604.03,399.00 605.08,399.00 C606.14,399.00 607.00,399.45 607.00,400.00 C607.00,401.62 601.99,401.14 601.35,399.46 ZM 925.43 399.68 C925.15,398.96 925.32,397.30 925.81,395.99 L 926.69 393.62 L 927.36 396.31 C928.02,398.93 928.24,399.00 935.41,399.00 C943.54,399.00 943.89,398.73 943.40,392.75 C943.22,390.69 943.31,389.00 943.58,389.00 C944.56,389.00 948.07,398.38 947.57,399.68 C946.85,401.57 926.16,401.58 925.43,399.68 ZM 461.83 396.00 C458.27,387.33 457.12,383.96 457.87,384.42 C459.38,385.35 463.13,394.10 462.77,395.85 C462.49,397.25 462.35,397.28 461.83,396.00 ZM 700.38 391.75 C699.29,390.51 697.77,388.60 696.98,387.50 C695.64,385.62 695.71,385.62 698.03,387.60 C701.51,390.56 703.66,391.11 705.07,389.42 C707.02,387.07 707.32,388.58 705.46,391.41 C703.39,394.57 702.88,394.61 700.38,391.75 ZM 727.36 391.51 C727.05,390.68 726.39,390.26 725.90,390.56 C724.25,391.58 724.97,389.33 726.83,387.65 C729.05,385.64 730.00,386.40 730.00,390.17 C730.00,393.17 728.33,394.02 727.36,391.51 ZM 613.50 377.00 C613.11,376.37 612.19,376.10 611.45,376.38 C610.58,376.71 610.30,376.38 610.66,375.45 C611.41,373.50 613.64,373.61 614.42,375.64 C615.17,377.61 614.49,378.61 613.50,377.00 ZM 798.04 377.31 C798.07,376.86 798.69,374.02 799.42,371.00 C800.42,366.87 800.94,365.95 801.51,367.33 C802.34,369.32 800.54,376.55 798.97,377.52 C798.44,377.85 798.02,377.75 798.04,377.31 ZM 937.50 377.00 C937.11,376.37 936.19,376.10 935.45,376.38 C934.58,376.71 934.30,376.38 934.66,375.45 C935.41,373.50 937.64,373.61 938.42,375.64 C939.17,377.61 938.49,378.61 937.50,377.00 ZM 435.78 330.89 C434.29,326.88 433.19,323.48 433.34,323.33 C434.12,322.55 439.13,334.04 438.84,335.94 C438.60,337.52 437.69,336.01 435.78,330.89 Z" fill="rgb(234,222,213)"/>
</g>
</svg>